/* XPM */
static char *_a24b17b038b4ef4e17384f3243b7defkiG1pxGDGVuN4fCT[] = {
/* columns rows colors chars-per-pixel */
"64 64 256 2 ",
"   c #081633",
".  c #3D013C",
"X  c #3A0137",
"o  c #36012B",
"O  c #0E3F2B",
"+  c #123D2C",
"@  c #0E3E31",
"#  c #143C35",
"$  c #192C3D",
"%  c #273237",
"&  c #0D291B",
"*  c #42003D",
"=  c #0B591B",
"-  c #074E15",
";  c #15651D",
":  c #0C7411",
">  c #207018",
",  c #0C412C",
"<  c #094725",
"1  c #124A2D",
"2  c #0C5624",
"3  c #0C5829",
"4  c #155C2C",
"5  c #135728",
"6  c #0C4834",
"7  c #134C3A",
"8  c #164837",
"9  c #0E5237",
"0  c #155B31",
"q  c #175635",
"w  c #22593C",
"e  c #244B35",
"r  c #1B6528",
"t  c #1C6733",
"y  c #156E23",
"u  c #236927",
"i  c #267928",
"p  c #236A37",
"a  c #267635",
"s  c #337A39",
"d  c #1D0055",
"f  c #1B025B",
"g  c #17124E",
"h  c #2A014A",
"j  c #3C0044",
"k  c #3C004C",
"l  c #350047",
"z  c #260156",
"x  c #390058",
"c  c #2E194D",
"v  c #183148",
"b  c #293253",
"n  c #1E0270",
"m  c #270266",
"M  c #370269",
"N  c #2C027C",
"B  c #2A0376",
"V  c #340174",
"C  c #37027A",
"Z  c #32196A",
"A  c #342769",
"S  c #430144",
"D  c #450249",
"F  c #460256",
"G  c #54005D",
"H  c #4B375E",
"J  c #46027B",
"K  c #4B0C73",
"L  c #660478",
"P  c #5E2A7D",
"I  c #4A2E6E",
"U  c #602B7E",
"Y  c #185744",
"T  c #134A45",
"R  c #264A48",
"E  c #304B45",
"W  c #255545",
"Q  c #37564D",
"!  c #364D56",
"~  c #397647",
"^  c #2B6852",
"/  c #3C5062",
"(  c #26695C",
")  c #44685B",
"_  c #4D5171",
"`  c #4E6E69",
"'  c #445157",
"]  c #26861C",
"[  c #278329",
"{  c #389132",
"}  c #35A325",
"|  c #15901A",
" . c #46AE36",
".. c #41973B",
"X. c #3A8543",
"o. c #538469",
"O. c #519F55",
"+. c #1B0081",
"@. c #2D0184",
"#. c #2D008A",
"$. c #260684",
"%. c #330184",
"&. c #3B0184",
"*. c #3C018B",
"=. c #370587",
"-. c #350192",
";. c #391482",
":. c #470489",
">. c #56068B",
",. c #490395",
"<. c #5B039C",
"1. c #560596",
"2. c #53198F",
"3. c #630489",
"4. c #630396",
"5. c #65039B",
"6. c #6B019D",
"7. c #640A9C",
"8. c #73039D",
"9. c #6F1792",
"0. c #552C8A",
"q. c #6E2E8C",
"w. c #5C06A4",
"e. c #550CAE",
"r. c #6502A3",
"t. c #6B01A4",
"y. c #620AA3",
"u. c #6502AA",
"i. c #6C01AB",
"p. c #680AA7",
"a. c #7200A4",
"s. c #7301AB",
"d. c #7803AA",
"f. c #7B02B3",
"g. c #7904B7",
"h. c #7310B0",
"j. c #7E24B0",
"k. c #6D4C95",
"l. c #7E08C3",
"z. c #8303BC",
"x. c #8705B7",
"c. c #8F0EB5",
"v. c #A50BBD",
"b. c #8F2CAD",
"n. c #872E94",
"m. c #8D43A7",
"M. c #9B46A2",
"N. c #8B03C2",
"B. c #8907C7",
"V. c #9606CA",
"C. c #9715C8",
"Z. c #9B07D3",
"A. c #9A12D8",
"S. c #8B0FCE",
"D. c #A716C4",
"F. c #AC02DD",
"G. c #A507D9",
"H. c #B302DD",
"J. c #B906D7",
"K. c #B917D4",
"L. c #AC0ECC",
"P. c #9826C5",
"I. c #B12BCE",
"U. c #AD02E3",
"Y. c #AC01E9",
"T. c #A907E2",
"R. c #B401E4",
"E. c #BA01E4",
"W. c #B500EA",
"Q. c #BB01EB",
"!. c #B70BE6",
"~. c #BB00F3",
"^. c #B517E5",
"/. c #BB29E5",
"(. c #CA17D8",
"). c #CA13D5",
"_. c #CC2ED6",
"`. c #C708E9",
"'. c #C716E7",
"]. c #D91AE9",
"[. c #C908F4",
"{. c #D60BF3",
"}. c #D917F6",
"|. c #CE12F1",
" X c #E419EB",
".X c #EC0CF9",
"XX c #F20FFE",
"oX c #F909FC",
"OX c #E415FD",
"+X c #ED16FD",
"@X c #EC1AFC",
"#X c #E619F7",
"$X c #F213FE",
"%X c #F21CFE",
"&X c #FC15FE",
"*X c #E50EEA",
"=X c #D927E4",
"-X c #DA23F9",
";X c #D030EA",
":X c #E427EB",
">X c #EA25F8",
",X c #F426FD",
"<X c #EB38F6",
"1X c #F438FB",
"2X c #E536EB",
"3X c #B44DCE",
"4X c #CF4CD6",
"5X c #D16CD5",
"6X c #D84BE8",
"7X c #E648EB",
"8X c #E94AF4",
"9X c #FC4BFD",
"0X c #F547F9",
"qX c #EA56F5",
"wX c #FE55FD",
"eX c #FE5CFE",
"rX c #F757F5",
"tX c #E858E8",
"yX c #E869EA",
"uX c #FE62FE",
"iX c #FD6BFD",
"pX c #F566F5",
"aX c #FD73FD",
"sX c #FE7BFD",
"dX c #F876F7",
"fX c #EB6FEE",
"gX c #D973E2",
"hX c #698A84",
"jX c #D686DB",
"kX c #DE94E2",
"lX c #E787E7",
"zX c #EB97EA",
"xX c #E885F6",
"cX c #FE84FD",
"vX c #FE8BFD",
"bX c #F689F6",
"nX c #EE96F4",
"mX c #FD93FC",
"MX c #F798F7",
"NX c #F38FED",
"BX c #F7A8F7",
"VX c #FCBCFD",
"CX c #F9B5F9",
"ZX c #ECABEB",
"AX c #E4A0DE",
"SX c #FEC4FE",
"DX c #FDCBFD",
"FX c #F9CAF7",
"GX c #FDD3FE",
"HX c #FDDCFC",
"JX c #F6D6F6",
"KX c #F3CEF0",
"LX c #FEE4FE",
"PX c #FDEBFE",
"IX c #FAEAF8",
"UX c #FDF6FD",
/* pixels */
"W W 7 6 7 7 7 7 0 4 0 0 0 4 4 0 0 0 0 e D F 3.8.c.,X%X%XcXmXBXDXGXGXGXGXGXGXSXMXvXvXK.T.`.OXI.q.T Y Y Y Y s s t 4 0 q 1 8 8 8 Q ",
"7 7 6 6 6 6 6 6 2 5 4 4 4 ; r r 1 % % % L 3.3.>.t.).'.`.8XqXyXxXxXxXxXxXxXxXfXtXqXqX(.`.}.1X4Xb.0._ ! q 0 u p 4 2 1 1 , , , , E ",
"8 , 2 0 0 0 0 1 r u u u u > i | e X o D `.^.p.$.#.6.6.r.F.R.H.F.U.W.Y.Y.U.U.Y.Y.Y.H.}.+X1XmXcX2X&X=Xn.u : = 2 , < O O , O , O E ",
"8 < 2 5 3 2 2 3 r u u r u t ~ ) H G G L Q.G.p.&.*.w.w.w.A.A.C.D.v.v.D.C.C.C.A.G.G.F.-XOX1XvXsX_._.I.n.I H 5 q 6 , , O O O , @ E ",
"Y 1 2 5 2 r t t u u > u a ^ O v P v.c.c.Q.G.g.1.,.=.*.,.w.<.3.3.L L L L L >.1.f.z.N.T.`.'._._.bXMXBX5Xb.M.< 1 6 , O O + O 8 8 Q ",
"0 3 4 5 3 5 p u u r y [ ] ^ g +.g.[.W.W.E.F.x.s.r.@.@.N $.N x l X . . . h g V 1.t.f.Z.R.`.oX_.BXJXGXgX.X.X< < 6 6 @ @ @ @ 7 7 Q ",
"0 3 2 3 3 5 p u r r p ~ ~ _ z N f.[.R.R.R.G.z.i.w.@.@.%.N V x l l X . . h h m 2.y.s.C.U.`.,X_.BXGXGX5X).).$ $ v + 6 O @ @ 7 7 Q ",
"4 3 4 4 0 4 5 5 r r R ! H 0.q.P.K.{.|.'.B.B.u.1.,.@.%.%.F x x x z . * S j l M C =.:.a.B.V.C.v.tXgX5XgXjXjXb.q.H # , O + + 7 7 Q ",
"0 2 r t p r 2 2 5 q A K <.8.;X,X@X%X%X].5.y.:.%.%.N %.%.k k z z z . * j j k h z z m >.t.t.5.d.'. X).kXUXHX>X4XU $ # + + + 7 7 Q ",
"0 2 4 r r t 2 2 7 R I 9.g.c.-X%X@X*X X(.>.>.:.V C B V C j l h z d . * j j j l h h x J 1.5.<.d.^.+X(.jXHXDX,X6Xn.c b v # + 7 7 Q ",
"4 = 4 r u r - - c.W.).eXpXwXwXeXI.4.6.3.S D S j j j j S z d d d z k S * * * . . * j l . x N &.,.r.a.L.#X>XUXPX5X X@Xm.b 3 6 , E ",
"4 2 r r u w + # x.F.).eXrXeXwXpXI.r.a.4.k D D S S j S S z z d d z k S * * * j k F F x D F V C >.1.4.D. X:XPXLX5X).(.b.I b 6 , E ",
"0 2 t r u ! b Z I.2X2X2X,X2XiXcX4XB.V.x.F x x S * j S D z z f f m j j j . . k x M J 9.9.b.3X3X3X4X4X7X0X<X5X5XlXlXlX5Xb.b.R 1 Q ",
"4 = r u u I K <.6XuX9X]..X=XaXmX6XT.W.G.%.M x * * j . * f f d d d . . X . . x M V :.S.T.-XiXuXcXmXvXiXeXwX*X).kXUXUXZX_.$X! 9 Q ",
"4 = r u p I K i.6XuX0X X+X=XaXmX6XU.~.T.#.V x j * S * * z f d d z j . . . j M M N ,.B.Y.|.eXrXsXvXcXpXrXwXoX(.kXUXUXAX).oX/ 9 Q ",
"0 1 e R b 2.9.D.=X7X<X@X$X=XiXcX7XQ.[.H.:.:.C M x * . . h h z m m x x x x x J 1.e.t.I.I.4XlXgXMXZXBXdXyXpXXX XyXAXZXlX4X5XA b ! ",
"q w $ g z >.;X@XJ.F.`.@X$X].9XrX<XOX@X}.<.1.:.C M . . S j k x V N C C V V V >.C.T.V.dXcXmXDXSXSXSXSXBXvXsX+X#X X(.).4XHXPX0.f b ",
"0 R c B =.g.-X&X[.W.`.@X$X}.9XeX1X.X&X*X5.y.,.%.V X . S * S x V #.#.#.#.#.@.<.Z.`.V.pXbXBXJXDXDXDXDXBXmXcX,X%X&X&XXX5XPXUX0.N Z ",
"Z Z j.'.'.'.E.E.Q.W.`.@X@X X9XwX9X9X9X7X5.r.,.N B B B V 3.4.4.5.5.Z.Z.Z.Z.Z.L.8X0X4XMXSXSXFXSXZXmXmXtX>X:X1.1.d.x.x.C././.(.(.M.",
"C C P.>X%X}.H.H.W.W.`.@X@X>X9XwXwXwXeX8X6.y.1.C N @.@.%.r.t.t.t.t.U.R.R.R.R.K.uXuXyXBXDXDXDXSXnXvXcX7X#X}.N C 1.t.t.x.G.F.#X>X4X",
">.>.C.-X}.|.R.R.R.W.`.}.}.].1X1X0XrXeX7Xz.g.,.N N :.:.:.t.t.t.t.t.F.R.R.R.R.J.<X2X6XbXZXZXCXBXxXdXsX4XK.^.1.1.<.t.s.x.V.Z.I.P.m.",
"p.s.B.R.E.E.E.R.Q.W.E.J.J.J.}.*X<XuXeX8XF.A.y.N %.p.7.y.t.t.t.t.t.U.R.R.R.R.R.F.F.v.7XtXyXnXcXyXqXuXI.6.s.t.t.r.t.t.s.s.s.>.J Z ",
"d.f.V.W.~.Q.Q.Q.W.W.R.R.E.E.@X+X1XuXeX0XW.G.p.%.*.a.a.t.t.t.t.t.t.F.R.R.R.R.W.W.W.J.0XwXiXvXsXeXwXiXP.<.r.t.t.t.t.r.r.r.i.=.N A ",
"7.r.g.A.A.G.G.G.R.W.Y.W.R.Q.OXOX1XwXwX0XQ.G.s.&.:.a.t.t.t.t.t.t.t.F.R.R.H.H.E.E.W.H.0X9XeXcXsXrX9XwXI.d.f.t.t.t.r.r.y.<.w.=.B A ",
":.:.<.g.g.g.f.s.F.W.Y.Y.W.Q.`.`.'.:X X].R.G.g.<.<.t.t.a.t.t.t.t.t.F.R.R.R.H.E.-X}.#X#X X2XyXrX=X:X:XK.G.Z.s.t.a.t.r.<.:.:.%.B A ",
"N N ,.7.7.i.t.<.G.Q.R.R.R.W.Q.R.{.&X$X+XW.G.d.a.t.r.t.t.t.t.5.6.6.F.R.U.H.H.`.OX&X$X$X$X,XeXeX:X$X$X{.E.F.r.r.t.t.t.1.N n @.@.Z ",
"M M C :.,.<.y.6.z.N.N.N.N.V.F.R.Q.{.{.`.N.x.d.a.t.t.t.t.t.t.5.6.a.F.R.F.`.{.{.OX+X$X$X+X%X1X1X:X$X$X{.R.H.N.N.f.i.i.i.g.g.V.C.q.",
"F x M N #.:.y.8.6.t.5.t.i.f.G.Y.Y.Y.W.F.<.t.a.a.t.r.t.t.r.r.t.t.a.T.U.F.{.%X$X+XOX+X$X$X+X*X#X#X+X@X{.R.R.H.G.z.i.i.N.T.~.@X>X3X",
"D k M C %.:.y.t.t.t.r.t.i.f.Z.W.R.T.R.F.6.a.a.t.t.t.t.t.t.t.t.t.r.F.U.H.{.+X+X+XOXOX$X+X+X$X$X$X+X@X`.R.W.E.T.B.i.i.z.T.W.OX#X3X",
"D k M M M :.1.<.r.t.r.r.i.s.N.G.G.Z.G.Z.t.t.t.t.t.t.t.t.w.<.5.<.1.!.Q.`.{.$X+XOXOX+X$X+X+X$X$X$X+X@X`.R.W.Q.R.V.z.g.N.G.F.`.(.M.",
"z z l . X x m n <.t.6.6.a.t.i.t.t.a.6.6.t.t.t.t.t.t.a.a.=.@.N N N }.@X$X$X$XOX+X$XXXXX+X$XXX+X@X$X@X`.R.Y.Y.Y.W.W.R.Z.s.r.r.4.P ",
"B m z x F J J *.t.s.s.t.6.a.t.i.t.t.t.i.w.y.r.y.y.7.r.r.=.%.*.,.,.}.@X+X+X$XOX+X+X$X$X$X$X$X$X+X$X@X|.R.W.W.W.R.R.R.V.f.r.t.5.U ",
"$.B C K L 7.h.l.S.A.B.s.t.6.6.u.u.r.u.u.-.,.:.:.:.:.:.:.%.%.e.S.S.OXOX#X@X#X@X@X@X$X$X$X$X$X$X$X$X%X{.R.W.W.W.R.R.R.V.s.5.t.5.U ",
"=.%.,.5.a.x.G.R.R.!.G.f.i.t.r.i.t.t.i.w.%.%.%.@.@.%.%.%.N &.h.G.R.OX+X+X+X+X+X+X+X+X+X+X+X+X+X+X@X@X|.R.R.W.R.J.R.R.Z.f.u.t.5.U ",
":.:.w.f.x.V.R.E.R.R.G.N.z.g.g.g.f.f.g.g.,.,.=.@.@.@.%.%.,.<.S.'.'.OX+X+X+X+X+X+X+X+X+X+X+X+X+X+X@X@X|.R.R.Z.G.G.G.Z.N.s.r.t.5.U ",
"7.p.V.R.R.~.W.Q.Q.E.W.Q.~.~.~.R.W.W.W.T.i.p.:.%.%.@.%.&.U.W.=XuXeX@XOXOXOX+X+X+X+X+X+X+X+X+X+X+X+X@X`.R.F.a.t.t.t.t.t.t.5.t.5.U ",
"7.t.N.F.H.Y.Y.H.R.R.U.U.U.R.R.U.R.W.Y.G.u.y.:.%.%.@.%.%.G.F.].eXwX%X+X+X+X+X$X$X+X@X@X@X@X@X@X@X#X@X`.E.R.a.a.a.a.t.a.t.t.t.5.U ",
"p.a.x.G.H.U.F.J.H.H.F.F.T.F.R.U.R.Q.R.G.r.y.:.%.%.@.%.%.G.H.].eXwX%X+X$X+X+X$X$X$X@X#X#X#X@X@X@X#X@X`.E.R.8.a.a.a.a.a.a.a.t.5.U ",
"FXVXVXVXVXVXVXVXVXVXVXVXVXCXbXcXiX9XwX0XY.A.y.@.*.H.F.F.0XwXwXwXwX!.R.Q.z.5.x.G.Q.G.pXsXvXVXCXbXcXsX7X*X+XU.Y.F.F.F.U.U.R.s.4.P ",
"DXDXDXDXDXDXDXFXDXSXDXDXSXVXzXmXdX9XwX0XW.G.5.m :.Q.R.R.wXeXeXuXuX!.F.R.z.5.x.Z.F.x.yXbXMXFXVXzXbXcX6X]. XY.R.R.R.R.R.R.Q.s.4.P ",
"BXZXCXDXFXFXHXHXDXDXDXDXDXSXZXBXbXpXdXpX{.'.I.b.P.Q.E.E.=X=X_.I.I.V.N.B.V.V.V.;X=X_.nXZXKXJXGXCXBXBXfX7X7XU.R.R.E.E.Q.Q.~.s.4.P ",
"bXlXZXSXDXHXPXUXGXFXDXDXDXDXDXFXBXcXvXsX$X#X9XiXqXR.R.R.F.F.x.6.4.t.t.t.V.R.K.uXeXyXFXPXPXPXLXDXFXDXBXvXcXR.R.R.R.R.R.R.R.s.4.P ",
"sXdXBXSXSXJXPXIXHXFXDXSXSXDXDXJXCXbXvXdX.X#X1XwX0XF.R.R.U.T.C.s.y.7.7.t.V.H.D.uXuX5XKXPXPXIXLXFXJXGXBXnXxXR.W.W.R.R.!.F.F.s.4.P ",
",X XtXvXvXZXSXFXIXPXHXFXFXKXLXPXVXcXvXsXXX#X1XwXeXcXcXcXGXLXGXFXSXSXSXSXSXVXSXHXLXLXLXPXPXPXPXPXIXLXJXFXCXOX@X[.R.F.B.s.s.t.5.P ",
"@X].tXcXcXzXSXFXLXPXHXFXFXKXLXPXVXcXvXaXXX#X0XwXuXvXvXvXHXPXHXDXDXDXDXDXDXSXFXLXPXPXLXIXIXPXPXPXIXLXHXDXVX@X@X[.R.R.V.s.s.t.5.0.",
"%X#XrXvXmXZXDXDXLXPXHXFXDXKXPXUXSXcXvXsX.X].0XeXeXvXcXcXLXPXHXFXFXDXDXDXDXDXJXPXPXPXLXIXIXIXPXPXPXLXGXDXVX%X@X[.R.!.Z.f.t.t.5.q.",
"h.s.I.1X1XtXmXBXFXJXJXLXLXHXZXCXdX,X1X1X0X8XpXsXcXVXCXCXDXGXHXLXHXBXMXMXVXDXDXGXGXJXLXPXIXIXPXJXJXGXCXBXnX[.!.Z.z.g.f.i.a.J M I ",
"@.&.C.@XXX2XcXbXCXFXJXPXPXLXAXMXrX.X+X,XuXpXsXcXmXGXDXDXSXFXJXPXPXmXbXbXCXDXDXSXDXKXLXPXPXPXPXKXJXDXBXnXxXY.T.B.u.u.r.t.i.M z c ",
"v c q.I.^.I.pXrXBXVXSXFXJXSXfXpX8X|.}.#X0X8XdXMXBXDXDXDXCXCXGXPXPXmXcXsXBXCXVXSXDXDXGXLXHXHXHXSXCXCXMXsXdXZ.C.x.5.7.1.1.w.g   % ",
") ` I V :.8.;X*XfXnXNXzXzXcX_.].`.F.R.E.#X(.lXSXSXDXDXDXMXlXZXPXPXvXvXcXmXNXzXSXDXDXDXFXFXDXSXAXNXvXfXqXqXs.s.6.t.y.1.*.-.b R ' ",
"] s b n -.g.-XoXiXmXcXcXvXaX=XXX{.Y.R.!.&X].lXDXDXDXFXFXvXbXZXLXPXmXvXvXvXcXnXSXJXDXSXDXDXDXSXzXMXvXpXrX0X4.5.6.t.s.w.-.#.T q Q ",
"i ~ e     K 3X-XpXcXcXsXaXiX=X+X{.R.E.`. X_.lXDXDXSXDXDXvXbXZXLXLXmXcXcXcXcXzXSXDXSXSXDXSXVXVXMXsXcXuXeX0X5.6.r.<.1.:.m g T 9 Q ",
"; = ~ o.o.k.K 5.v.D.K.;X=X=X].+XOX}.OX@X9XtXnXDXDXSXSXDXvXbXZXDXFXvXcXvXvXvXzXSXDXDXDXDXCXzXMXyXrXuX;XL.L.6.r.1.:.&.V A b T 9 Q ",
"4 - ]  . .`   +.Z.~.[.@X$X%X+X@X+X$X$X,XeXtXnXDXDXSXDXDXvXcXZXDXDXvXvXvXvXvXzXSXDXDXDXDXCXcXcXpXwXuX=XU.U.t.p.,.@.N g v - 9 9 Q ",
"4 = i { { ~ 8 b p.l.Z.|.{.{.OX#X+X+X+X,XaXfXBXDXDXDXDXDXsXaXbXBXCXsXaXsXcXvXzXSXDXSXCXCXMXaXaX2X2X2XK.V.N.1.:.;.Z g v R 9 9 9 Q ",
"4 = y i i i [ [ Z #.w.T.Q.E.@X@X#X#XOX>XvXbXCXDXDXFXFXFXuX0XpXcXcXeXrXtXdXcXzXSXDXSXzXbXdXrXwXJ.U.U.N.s.t.-.B Z b # 7 ( ( Y 9 Q ",
"0 2 t s a i i [ # g Z j.Z.G.-X@X@X+XXX,XvXbXBXSXSXDXDXFXuXrXuXcXcXeXwXwXiXsXMXVXVXVXmXcXaX9XwXJ.G.A.g.w.1.g g v , < 9 ^ ( 9 9 Q ",
"0 3 r 3 = ; i i o.hXk.M <.t.Z.`.{.$XXX,XvXmXNXzXZXDXDXFXuXwXrXpXyXrXwXwXrXpXyXmXnXmXyXpX6XJ.J.v.z.f.w.&.=._ ) ^ t p Y , 6 Y ^ ) ",
"q 9 3 3 2 = a i }  .` g -.1.S.W.{.&X$X,XmXvXcXcXmXGXDXGXiXwXrXeXeXwXwXwXwXrXpXcXvXcXpXeX<XW.G.z.p.u.1.-.=.[ [ i p p w , @ Y ^ ) ",
"q 9 3 2 2 ; a i }  .`   f M b.G.'.%XOX,XvXvXvXcXmXDXSXDXuXwXeXeXeXeXuXuXeXeXiXcXvXcXpXwX<XT.A.g.r.w.=.m f > i u t t w O @ Y ^ ) ",
"7 6 3 3 2 2 r ; ] { ~ ) ` k.K >.x.[.[.}.dXyXdXvXcXlXlXlX<X<X=X(.(.D.D.v.K.(._.iXpXpXpXeX2Xx.x.5.,.:.Z A b { ..[ t p W , @ Y Y ) ",
"8 , 2 4 5 2 2 2 ; i [ O. .o.& g 1.~.R.!.wXrXdXvXsXrXrXrX@XOX|.F.F.a.t.4.N.H.J.eXrXrXeXuX;X<.w.:.C f b Y 0  . .[ y a q < O 6 9 Q ",
", , < 0 1 1 1 1 r i [ { } O.&   >.F.V.G.0X8XdXsXaX9X9X9X@XOX|.R.W.s.t.r.N.F.J.0X0X0X8XqXI.1.,.=.B g v 9 ; } ..[ y a w < , 6 9 R ",
"W R W W W W W R t p p a a p ~ X./ ;.Z 2.|./.8XiXeX,X,X,X}.|.|.^.|.c.h.h.h.j.C./././.D.c.h.2.A A ! R W p t { { { X.X.~ q W Y Y ) "
};
