/* XPM */
static char *rcp19681708152840545[] = {
/* columns rows colors chars-per-pixel */
"64 64 166 2 ",
"   c #241D12",
".  c #2C2215",
"X  c #292318",
"o  c #392712",
"O  c #3C2D1A",
"+  c #2E2C23",
"@  c #302B21",
"#  c #333026",
"$  c #34342B",
"%  c #38372D",
"&  c #3F3426",
"*  c #363B34",
"=  c #3B3D35",
"-  c #5B1405",
";  c #771807",
":  c #7A1907",
">  c #7C1C0B",
",  c #4F2B0F",
"<  c #512A0C",
"1  c #402D16",
"2  c #5E2417",
"3  c #44321E",
"4  c #5B3615",
"5  c #5E3816",
"6  c #5A3B1E",
"7  c #753A0D",
"8  c #763A0E",
"9  c #662316",
"0  c #653A15",
"q  c #592B21",
"w  c #453321",
"e  c #4C3621",
"r  c #543C24",
"t  c #563F27",
"y  c #533D37",
"u  c #783225",
"i  c #3E423B",
"p  c #7C4516",
"a  c #794E1F",
"s  c #5C4027",
"d  c #5C432A",
"f  c #424239",
"g  c #4A483F",
"h  c #4D4638",
"j  c #594631",
"k  c #6F4E2E",
"l  c #624529",
"z  c #795122",
"x  c #7B5429",
"c  c #654D33",
"v  c #6C553B",
"b  c #71563A",
"n  c #7C5733",
"m  c #3E4A46",
"M  c #3D4946",
"N  c #4A4B42",
"B  c #424D4A",
"V  c #4C514C",
"C  c #51524E",
"Z  c #425351",
"A  c #4A5855",
"S  c #515756",
"D  c #565C56",
"F  c #575E5A",
"G  c #625441",
"H  c #755E44",
"J  c #605E52",
"K  c #5D635E",
"L  c #65665C",
"P  c #4C6262",
"I  c #4F696B",
"U  c #536262",
"Y  c #576967",
"T  c #526B6D",
"R  c #5B6E6D",
"E  c #5E706F",
"W  c #5C7374",
"Q  c #5C7678",
"!  c #5F787A",
"~  c #616C6C",
"^  c #7F6D69",
"/  c #647C7D",
"(  c #6B7E7E",
")  c #6C7675",
"_  c #727E7D",
"`  c #717B77",
"'  c #861B08",
"]  c #8D1D09",
"[  c #921E09",
"{  c #981E09",
"}  c #9C210A",
"|  c #862A19",
" . c #9C2F1A",
".. c #A3200A",
"X. c #AA250C",
"o. c #B1230A",
"O. c #BA270C",
"+. c #BC2A0E",
"@. c #A82A12",
"#. c #BE2E12",
"$. c #983523",
"%. c #C52D0F",
"&. c #C72F10",
"*. c #CA2F10",
"=. c #C83616",
"-. c #8D4D18",
";. c #864815",
":. c #8B4336",
">. c #835B37",
",. c #9B6224",
"<. c #8C623C",
"1. c #93663D",
"2. c #AC6B26",
"3. c #B06E28",
"4. c #D54B28",
"5. c #E7673D",
"6. c #874C41",
"7. c #904C40",
"8. c #8F5146",
"9. c #995F53",
"0. c #9E6D41",
"q. c #916A45",
"w. c #93655A",
"e. c #A37145",
"r. c #AB7546",
"t. c #AE7849",
"y. c #B67C4B",
"u. c #8B7A74",
"i. c #EC6E42",
"p. c #76837F",
"a. c #BE8470",
"s. c #C2844F",
"d. c #C78751",
"f. c #C78851",
"g. c #CA8952",
"h. c #D38F55",
"j. c #D69157",
"k. c #DD965A",
"l. c #E69C5D",
"z. c #EA9E5E",
"x. c #ECA05F",
"c. c #C1876F",
"v. c #CC9178",
"b. c #EEA160",
"n. c #657E80",
"m. c #798A88",
"M. c #7C9393",
"N. c #888D8A",
"B. c #998B83",
"V. c #82908E",
"C. c #879795",
"Z. c #8F9290",
"A. c #889895",
"S. c #859A99",
"D. c #899D9D",
"F. c #929894",
"G. c #8EA19F",
"H. c #94A19D",
"J. c #8FA2A0",
"K. c #92A3A2",
"L. c #98A9A7",
"P. c #99AAA7",
"I. c #A0AEAC",
"U. c #ABB7B4",
"Y. c #AAB7B4",
"T. c #B1BCB8",
/* pixels */
"b.b.b.b.b.b.b.b.b.b.b.b.b.b.b.b.b.b.b.b.b.b.b.b.b.b.b.b.b.b.b.b.b.b.b.b.b.b.b.b.b.b.b.b.b.b.b.b.b.b.b.b.b.b.b.b.b.b.b.b.b.b.b.b.",
"b.b.b.b.b.b.b.b.b.b.b.b.b.b.b.b.b.b.b.b.b.b.b.b.b.b.b.b.b.b.b.b.b.b.b.b.b.b.b.b.b.b.b.b.b.b.b.b.b.b.b.b.b.b.b.b.b.b.b.b.b.b.b.b.",
"b.b.b.b.b.b.b.b.b.b.b.b.b.b.b.b.b.b.b.b.b.b.b.b.b.b.b.b.b.b.b.b.b.b.b.b.b.b.b.b.b.b.b.b.b.b.b.b.b.b.b.b.b.b.b.b.b.b.b.b.b.b.b.b.",
"b.b.b.b.b.b.b.b.b.b.b.b.b.b.b.b.b.b.b.b.b.b.d.d.3 3                         k k b.b.b.b.b.b.b.b.b.b.b.b.b.b.b.b.b.b.b.b.b.b.b.b.",
"b.b.b.b.b.b.b.b.b.b.b.b.b.b.b.b.b.b.b.b.b.b.d.d.3 3                         k k b.b.b.b.b.b.b.b.b.b.b.b.b.b.b.b.b.b.b.b.b.b.b.b.",
"b.b.b.b.b.b.b.b.b.b.b.b.b.b.b.b.b.b.b.b.t.t.n n z z z z z z z z z z z z z z x x n n l.l.b.b.b.b.b.b.b.b.b.b.b.b.b.b.b.b.b.b.b.b.",
"b.b.b.b.b.b.b.b.b.b.b.b.b.b.b.b.b.b.b.b.>.>.1 1 ,.,.2.2.2.2.3.3.3.3.3.3.2.2.a a     k.k.b.b.b.b.b.b.b.b.b.b.b.b.b.b.b.b.b.b.b.b.",
"b.b.b.b.b.b.b.b.b.b.b.b.b.b.b.b.b.b.b.b.>.>.1 1 ,.,.2.2.2.2.3.3.3.3.3.3.2.2.a a     k.k.b.b.b.b.b.b.b.b.b.b.b.b.b.b.b.b.b.b.b.b.",
"b.b.b.b.b.b.b.b.b.b.b.b.b.b.b.b.b.b.b.b.>.>.o o p p 7 7 8 8 -.-.-.-.-.-.8 8 , ,     k.k.b.b.b.b.b.b.b.b.b.b.b.b.b.b.b.b.b.b.b.b.",
"b.b.b.b.b.b.b.b.b.b.b.b.b.b.b.b.b.b.b.b.>.>.o o p p 7 7 8 8 -.-.-.-.-.-.8 8 , ,     k.k.b.b.b.b.b.b.b.b.b.b.b.b.b.b.b.b.b.b.b.b.",
"b.b.b.b.b.b.b.b.b.b.b.b.b.b.b.b.l.l.t t . . o o p p -.-.-.-.-.-.-.-.7 7 ;.;.0 0     . . 1.1.b.b.b.b.b.b.b.b.b.b.b.b.b.b.b.b.b.b.",
"b.b.b.b.b.b.b.b.b.b.b.b.b.b.b.b.l.l.t t . . o o p p -.-.-.-.-.-.-.-.7 7 ;.;.0 0     . . 1.1.b.b.b.b.b.b.b.b.b.b.b.b.b.b.b.b.b.b.",
"b.b.b.b.b.b.b.b.b.b.b.b.b.b.b.b.l.l.r r * * N N 6 6 5 5 5 5 5 5 5 5 , , 4 4 d d D D X X <.<.b.b.b.b.b.b.b.b.b.b.b.b.b.b.b.b.b.b.",
"b.b.b.b.b.b.b.b.b.b.b.b.b.b.b.b.l.l.r r * * N N 6 6 5 5 5 5 5 5 5 5 , , 4 4 d d D D X X <.<.b.b.b.b.b.b.b.b.b.b.b.b.b.b.b.b.b.b.",
"b.b.b.b.b.b.b.b.b.b.b.b.b.b.b.b.l.l.r r S S / / = = # # # # # # # # # # # # F F K.K.+ + <.<.b.b.b.b.b.b.b.b.b.b.b.b.b.b.b.b.b.b.",
"b.b.b.b.b.b.b.b.b.b.b.b.b.b.b.b.l.l.r r S S / / = = # # # # # # # # # # # # F F K.K.+ + <.<.b.b.b.b.b.b.b.b.b.b.b.b.b.b.b.b.b.b.",
"b.b.b.b.b.b.b.b.b.b.b.b.b.b.b.b.l.l.r r m m / / S.S.K.K.J.J.K.K.J.J.K.K.U.U.U.U.K.K.+ + <.<.b.b.b.b.b.b.b.b.b.b.b.b.b.b.b.b.b.b.",
"b.b.b.b.b.b.b.b.b.b.b.b.b.b.b.b.l.l.r r m m / / S.S.J.J.J.J.K.K.J.J.K.K.U.U.U.U.K.K.+ + <.<.b.b.b.b.b.b.b.b.b.b.b.b.b.b.b.b.b.b.",
"b.b.b.b.b.b.b.b.b.b.b.b.b.b.b.b.x.x.s.s.b b % % f f R R / / / / / / / / D D g g f f t.t.h.h.b.b.b.b.b.b.b.b.b.b.b.b.b.b.b.b.b.b.",
"b.b.b.b.b.b.b.b.b.b.b.b.b.b.b.b.x.x.s.s.b b % % f f R R / / / / / / / / D D g g f f t.t.h.h.b.b.b.b.b.b.b.b.b.b.b.b.b.b.b.b.b.b.",
"b.b.b.b.b.b.b.b.b.b.b.b.b.b.b.b.b.b.b.b.e.e.r r . . P P ! ! / / n.n./ / = = O O l l l.l.b.b.b.b.b.b.b.b.b.b.b.b.b.b.b.b.b.b.b.b.",
"b.b.b.b.b.b.b.b.b.b.b.b.b.b.b.b.b.b.b.b.e.e.r r . . P P ! ! / / n.n./ / = = O O l l l.l.b.b.b.b.b.b.b.b.b.b.b.b.b.b.b.b.b.b.b.b.",
"b.b.b.b.b.b.b.b.b.b.b.b.b.b.b.b.b.b.b.b.b.b.f.f.w w E E M.M.K.K.K.K.K.K.N N k k x.b.b.b.b.b.b.b.b.b.b.b.b.b.b.b.b.b.b.b.b.b.b.b.",
"b.b.b.b.b.b.b.b.b.b.b.b.b.b.b.b.b.b.b.b.b.b.f.f.w w E E M.M.K.K.K.K.K.K.N N k k b.b.b.b.b.b.b.b.b.b.b.b.b.b.b.b.b.b.b.b.b.b.b.b.",
"b.b.b.b.b.b.b.b.b.b.b.b.b.b.b.b.b.b.b.b.b.b.f.f.w w W W M.M.L.L.T.T.K.K.N N k k b.b.b.b.b.b.b.b.b.b.b.b.b.b.b.b.b.b.b.b.b.b.b.b.",
"b.b.b.b.b.b.b.b.b.b.b.b.b.b.b.b.b.b.b.b.b.b.f.f.w w W W M.M.L.L.T.T.K.K.N N k k b.b.b.b.b.b.b.b.b.b.b.b.b.b.b.b.b.b.b.b.b.b.b.b.",
"b.b.b.b.b.b.b.b.b.b.b.b.b.b.b.b.b.b.b.b.0.0.e e . . E E M.M.K.K.L.L.K.K.m.m.L L r r l.l.b.b.b.b.b.b.b.b.b.b.b.b.b.b.b.b.b.b.b.b.",
"b.b.b.b.b.b.b.b.b.b.b.b.b.b.b.b.b.b.b.b.0.0.e e . . E E M.M.K.K.L.L.K.K.m.m.L L r r l.l.b.b.b.b.b.b.b.b.b.b.b.b.b.b.b.b.b.b.b.b.",
"b.b.b.b.b.b.b.b.b.b.b.b.b.b.b.b.l.l.y.y.v v * * i i ( ( S.S.J.J.J.J.P.P.K.K.p.p.N N e.e.g.g.b.b.b.b.b.b.b.b.b.b.b.b.b.b.b.b.b.b.",
"b.b.b.b.b.b.b.b.b.b.b.b.b.b.b.b.l.l.y.y.v v * * i i ( ( S.S.J.J.J.K.P.P.K.K.p.p.N N e.e.g.g.b.b.b.b.b.b.b.b.b.b.b.b.b.b.b.b.b.b.",
"b.b.b.b.b.b.b.b.b.b.b.b.b.b.l.l.j.j.t t B B Q Q m.m.D.D.J.J.J.J.K.K.T.T.I.I.K.K.K.K.% % <.<.k.k.b.b.b.b.b.b.b.b.b.b.b.b.b.b.b.b.",
"b.b.b.b.b.b.b.b.b.b.b.b.b.b.l.l.j.j.t t B B Q Q m.m.D.D.J.J.J.J.K.K.T.T.I.I.K.K.K.K.% % <.<.k.k.b.b.b.b.b.b.b.b.b.b.b.b.b.b.b.b.",
"b.b.b.b.b.b.b.b.b.b.b.b.b.b.f.f.w w Z Z ( ( S.S.D.D.G.G.J.J.K.K.K.K.K.K.U.U.Y.Y.K.K.V.V.J J r r b.b.b.b.b.b.b.b.b.b.b.b.b.b.b.b.",
"b.b.b.b.b.b.b.b.b.b.b.b.b.b.f.f.w w Z Z ( ( S.S.D.D.G.G.J.J.K.K.K.K.K.K.U.U.Y.Y.K.K.V.V.J J r r b.b.b.b.b.b.b.b.b.b.b.b.b.b.b.b.",
"b.b.b.b.b.b.b.b.b.b.b.b.r.r.b b m m W W ^ ^ 9.9.9.9.9.9.9.9.9.9.9.9.9.9.a.a.v.v.c.c.H.H.p.p.L L >.>.f.f.b.b.b.b.b.b.b.b.b.b.b.b.",
"b.b.b.b.b.b.b.b.b.b.b.b.r.r.b b m m W W ^ ^ 9.9.9.9.9.9.9.9.9.9.9.9.9.9.a.a.v.v.c.c.H.H.p.p.L L >.>.f.f.b.b.b.b.b.b.b.b.b.b.b.b.",
"b.b.b.b.b.b.b.b.b.b.b.b.k k + + T T ) ) 7.7.X.X.X.X.X.X.X.X.X.X.X.X.X.X.4.4.5.5.i.i.B.B.F.F.C.C.    r.r.b.b.b.b.b.b.b.b.b.b.b.b.",
"b.b.b.b.b.b.b.b.b.b.b.b.k k + + T T ) ) 7.7.X.X.X.X.X.X.X.X.X.X.X.X.X.X.4.4.5.5.i.i.B.B.F.F.C.C.    r.r.b.b.b.b.b.b.b.b.b.b.b.b.",
"b.b.b.b.b.b.b.b.b.b.j.j.c c $ $ F F u u @.@.&.&.&.&.*.*.*.*.*.*.*.*.*.*.*.*.4.4.5.5. . .w.w.N.N.@ @ 0.0.l.l.b.b.b.b.b.b.b.b.b.b.",
"b.b.b.b.b.b.b.b.b.b.j.j.c c $ $ F F u u @.@.&.&.&.&.*.*.*.*.*.*.*.*.*.*.*.*.4.4.5.5. . .w.w.N.N.@ @ 0.0.l.l.b.b.b.b.b.b.b.b.b.b.",
"b.b.b.b.b.b.b.b.b.b.s s N N B B q q > > [ [ } } } } o.o.O.O.O.O.O.O.O.O.O.O.#.#.=.=.X.X.$.$.6.6.` ` G G t.t.b.b.b.b.b.b.b.b.b.b.",
"b.b.b.b.b.b.b.b.b.b.s s N N B B q q > > [ [ } } } } o.o.O.O.O.O.O.O.O.O.O.O.#.#.=.=.X.X.$.$.6.6.` ` G G t.t.b.b.b.b.b.b.b.b.b.b.",
"b.b.b.b.b.b.b.b.b.b.    B B S S - - : : ' ' ] ] X.X.o.o.o.o.o.o.o.o.o.o.+.+.+.+.o.o.o.X.{ { | | K.K.N N 0.0.b.b.b.b.b.b.b.b.b.b.",
"b.b.b.b.b.b.b.b.b.b.    B m S S - - : : ' ' ] ] X.X.o.o.o.o.o.o.o.o.o.o.+.+.+.+.o.o.X.X.{ { | | K.K.N N 0.0.b.b.b.b.b.b.b.b.b.b.",
"b.b.b.b.b.b.b.b.b.b.    B B S S - - : : ' ' [ [ +.+.O.O.o.o.o.o.o.o.o.o.%.%.%.%.o.o.o.o.{ { | | K.K.N N 0.0.b.b.b.b.b.b.b.b.b.b.",
"b.b.b.b.b.b.b.b.b.b.    B B S S - - : : ' ' [ [ +.+.O.O.o.o.o.o.o.o.o.o.%.%.%.%.o.o.o.o.{ { | | K.K.N N 0.0.b.b.b.b.b.b.b.b.b.b.",
"b.b.b.b.b.b.b.b.b.b.    B m S S - - : : ' ' ' ' ] ] X.X.o.o.o.o.o.o.o.o.o.o.o.o.o.o.o.o.{ { | | K.K.N N 0.0.b.b.b.b.b.b.b.b.b.b.",
"b.b.b.b.b.b.b.b.b.b.    B B S S - - : : ' ' ' ' ] ] X.X.o.o.o.o.o.o.o.o.o.o.o.o.o.o.o.o.{ { | | K.K.N N 0.0.b.b.b.b.b.b.b.b.b.b.",
"b.b.b.b.b.b.b.b.b.b.y.y.c c * * C C 2 2 ; ; ' ' ' ' ] ] } } o.o.o.o.%.%.O.O.o.o.o.o.[ [ 8.8.u.u.f f q.q.h.h.b.b.b.b.b.b.b.b.b.b.",
"b.b.b.b.b.b.b.b.b.b.y.y.c c * * C C 2 2 ; ; ' ' ' ' ] ] } } o.o.o.o.%.%.O.O.X.o.o.o.[ [ 8.8.u.u.f f q.q.h.h.b.b.b.b.b.b.b.b.b.b.",
"b.b.b.b.b.b.b.b.b.b.b.b.k k + + T T y y 9 9 : : ' ' ' ' [ [ ........+.+.X.X.........:.:.u.u.A.A.    t.t.b.b.b.b.b.b.b.b.b.b.b.b.",
"b.b.b.b.b.b.b.b.b.b.b.b.k k + + T T y y 9 9 : : ' ' ' ' [ [ ........+.+.X.X.........:.:.u.u.A.A.    t.t.b.b.b.b.b.b.b.b.b.b.b.b.",
"b.b.b.b.b.b.b.b.b.b.b.b.k k + + I I I I y y - - : : ' ' ' ' ' ' ' ' ' ' ' ' ' ' ' ' Z.Z.K.K.A.A.    t.t.b.b.b.b.b.b.b.b.b.b.b.b.",
"b.b.b.b.b.b.b.b.b.b.b.b.k k + + I I I I y y - - : : ' ' ' ' ' ' ' ' ' ' ' ' ' ' ' ' Z.Z.K.K.A.A.    t.t.b.b.b.b.b.b.b.b.b.b.b.b.",
"b.b.b.b.b.b.b.b.b.b.b.b.k.k.t.t.+ + A A U U U U U U U U ~ ~ _ _ _ _ _ _ _ _ m.m.F.F.K.K.K K & & j.j.l.l.b.b.b.b.b.b.b.b.b.b.b.b.",
"b.b.b.b.b.b.b.b.b.b.b.b.k.k.t.t.+ + A A U U U U U U U U ~ ~ _ _ _ _ _ _ _ _ m.m.F.F.K.K.K K & & j.j.l.l.b.b.b.b.b.b.b.b.b.b.b.b.",
"b.b.b.b.b.b.b.b.b.b.b.b.b.b.k.k.1.1.h h * * M M P P I I T T Q Q Q Q Q Q Q Q Y Y C C C C H H 0.0.b.b.b.b.b.b.b.b.b.b.b.b.b.b.b.b.",
"b.b.b.b.b.b.b.b.b.b.b.b.b.b.k.k.1.1.h h * * M M P P I I T T Q Q Q Q Q Q Q Q Y Y C C C C H H 0.0.b.b.b.b.b.b.b.b.b.b.b.b.b.b.b.b.",
"b.b.b.b.b.b.b.b.b.b.b.b.b.b.b.b.l.l.n n s s j j B B Z Z Z Z Z Z Z Z Z Z Z Z N N s s s s r.r.b.b.b.b.b.b.b.b.b.b.b.b.b.b.b.b.b.b.",
"b.b.b.b.b.b.b.b.b.b.b.b.b.b.b.b.b.b.b.b.b.b.d.d.3 3                         k k b.b.b.b.b.b.b.b.b.b.b.b.b.b.b.b.b.b.b.b.b.b.b.b.",
"b.b.b.b.b.b.b.b.b.b.b.b.b.b.b.b.b.b.b.b.b.b.d.d.3 3                         k k b.b.b.b.b.b.b.b.b.b.b.b.b.b.b.b.b.b.b.b.b.b.b.b.",
"b.b.b.b.b.b.b.b.b.b.b.b.b.b.b.b.b.b.b.b.b.b.b.b.b.b.b.b.b.b.b.b.b.b.b.b.b.b.b.b.b.b.b.b.b.b.b.b.b.b.b.b.b.b.b.b.b.b.b.b.b.b.b.b.",
"b.b.b.b.b.b.b.b.b.b.b.b.b.b.b.b.b.b.b.b.b.b.b.b.b.b.b.b.b.b.b.b.b.b.b.b.b.b.b.b.b.b.b.b.b.b.b.b.b.b.b.b.b.b.b.b.b.b.b.b.b.b.b.b.",
"b.b.b.b.b.b.b.b.b.b.b.b.b.b.b.b.b.b.b.b.b.b.b.b.b.b.b.b.b.b.b.b.b.b.b.b.b.b.b.b.b.b.b.b.b.b.b.b.b.b.b.b.b.b.b.b.b.b.b.b.b.b.b.b."
};
