/* XPM */
static char *f3533d6e2b444bb9bf7c0057e6a3bb2alQIEX0xWTRaLOqHx[] = {
/* columns rows colors chars-per-pixel */
"64 64 251 2 ",
"   c #023C1E",
".  c #043C23",
"X  c #0B3D26",
"o  c #04342B",
"O  c #0A352D",
"+  c #063C2B",
"@  c #0C3D2C",
"#  c #033524",
"$  c #113E2E",
"%  c #14362E",
"&  c #0D3E32",
"*  c #0B3B34",
"=  c #123E33",
"-  c #143C39",
";  c #173A32",
":  c #04580E",
">  c #05560D",
",  c #07471C",
"<  c #065912",
"1  c #0A551E",
"2  c #095817",
"3  c #135D1E",
"4  c #10541D",
"5  c #0E6717",
"6  c #16641D",
"7  c #1C641C",
"8  c #186B1A",
"9  c #1E7A1A",
"0  c #1E731D",
"q  c #237B1D",
"w  c #25781B",
"e  c #256A1E",
"r  c #054225",
"t  c #0B4425",
"y  c #044B25",
"u  c #0C4C24",
"i  c #05422B",
"p  c #0C432C",
"a  c #0C4B2B",
"s  c #064A2C",
"d  c #124B26",
"f  c #11432D",
"g  c #124C2C",
"h  c #154927",
"j  c #0B5423",
"k  c #0D5925",
"l  c #0E542B",
"z  c #0E592A",
"x  c #065121",
"c  c #125525",
"v  c #135B24",
"b  c #1A5D25",
"n  c #13542C",
"m  c #1A552D",
"M  c #135A2B",
"N  c #1A5C2C",
"B  c #195427",
"V  c #064333",
"C  c #0D4233",
"Z  c #0C4A34",
"A  c #0C4539",
"S  c #0D4C3B",
"D  c #07423A",
"F  c #124233",
"G  c #134B33",
"H  c #194C34",
"J  c #13453A",
"K  c #18473C",
"L  c #134B3C",
"P  c #184739",
"I  c #0D5134",
"U  c #0E513D",
"Y  c #145332",
"T  c #1A5434",
"R  c #155B33",
"E  c #1A5C33",
"W  c #13513C",
"Q  c #1C563A",
"!  c #195C3A",
"~  c #215B36",
"^  c #245F28",
"/  c #176325",
"(  c #1C6425",
")  c #1D6A24",
"_  c #156229",
"`  c #1D652B",
"'  c #1D692B",
"]  c #176B25",
"[  c #1E7527",
"{  c #1D6432",
"}  c #1E6932",
"|  c #1C633C",
" . c #1E6D39",
".. c #136235",
"X. c #1E7135",
"o. c #216A26",
"O. c #21662C",
"+. c #226B2C",
"@. c #296F2D",
"#. c #236724",
"$. c #247424",
"%. c #2A7726",
"&. c #257B24",
"*. c #2A7C24",
"=. c #24732C",
"-. c #2A752B",
";. c #26792B",
":. c #2A7B2B",
">. c #317B26",
",. c #327B2C",
"<. c #30742F",
"1. c #236632",
"2. c #246C32",
"3. c #2B6B32",
"4. c #226C3A",
"5. c #266437",
"6. c #257432",
"7. c #2B7433",
"8. c #247A32",
"9. c #2C7C32",
"0. c #2B753B",
"q. c #2C7C3A",
"w. c #267338",
"e. c #337D33",
"r. c #317A3A",
"t. c #337538",
"y. c #0E4E41",
"u. c #124E42",
"i. c #184942",
"p. c #0C5242",
"a. c #0D5A44",
"s. c #075643",
"d. c #125242",
"f. c #135A45",
"g. c #145C4A",
"h. c #1B5D4B",
"j. c #19554A",
"k. c #15624D",
"l. c #1B624D",
"z. c #136A4F",
"x. c #1C6A4A",
"c. c #1A6552",
"v. c #156B52",
"b. c #1A6953",
"n. c #166455",
"m. c #19765A",
"M. c #16734A",
"N. c #256C42",
"B. c #256543",
"V. c #337542",
"C. c #236C55",
"Z. c #226755",
"A. c #286E51",
"S. c #1A7C68",
"D. c #207D63",
"F. c #317E63",
"G. c #235348",
"H. c #26811E",
"J. c #2A821E",
"K. c #298B1C",
"L. c #359B1F",
"P. c #268225",
"I. c #2B8423",
"U. c #2B8A23",
"Y. c #2D822B",
"T. c #2B8A2A",
"R. c #338C24",
"E. c #31832D",
"W. c #318B2C",
"Q. c #358825",
"!. c #34932C",
"~. c #39952B",
"^. c #36992C",
"/. c #3A9B2D",
"(. c #329324",
"). c #2C8134",
"_. c #2B8435",
"`. c #328432",
"'. c #348B32",
"]. c #3A8D33",
"[. c #388838",
"{. c #3B9433",
"}. c #3B9B32",
"|. c #3D933C",
" X c #3E9A3B",
".X c #359635",
"XX c #2E9827",
"oX c #3BA32C",
"OX c #3EAA2C",
"+X c #39A726",
"@X c #3EB22C",
"#X c #3AB023",
"$X c #3CA333",
"%X c #3EA837",
"&X c #3FB031",
"*X c #419C2C",
"=X c #428D33",
"-X c #409C35",
";X c #439C3D",
":X c #45963A",
">X c #42AB2C",
",X c #46A62C",
"<X c #44B22D",
"1X c #48B62F",
"2X c #44A533",
"3X c #43AA32",
"4X c #41A33B",
"5X c #4AA53B",
"6X c #46AB3B",
"7X c #4AAC3C",
"8X c #49A835",
"9X c #46B233",
"0X c #4BB333",
"qX c #4BB33C",
"wX c #4BBA39",
"eX c #53BE3E",
"rX c #57B63C",
"tX c #55CA3C",
"yX c #59CB3E",
"uX c #55C43A",
"iX c #5BD435",
"pX c #59DA34",
"aX c #5BD93B",
"sX c #5BD739",
"dX c #5ADE2E",
"fX c #62D83B",
"gX c #56E23D",
"hX c #2A8447",
"jX c #2C8A4F",
"kX c #3CA345",
"lX c #1E816D",
"zX c #31886E",
"xX c #29876C",
"cX c #499945",
"vX c #499254",
"bX c #4CA646",
"nX c #53BC43",
"mX c #55B548",
"MX c #53AA51",
"NX c #4FAC46",
"BX c #59C745",
"VX c #5CD343",
"CX c #5BD547",
"ZX c #62CD4C",
"AX c #62D344",
"SX c #67D64C",
"DX c #68D453",
"FX c #69D14F",
"GX c #65E049",
"HX c #63E046",
"JX c #6DE253",
/* pixels */
"j.S L P P G Y R N N m R ......R R R N R R R N M R R y.S L P P K P P P P P P P K K K i.i.u.j.j.j.j.j.2.`.=.v R T H P K P K K K A ",
"u.V i i i r u z j j k j j j j j j j 1 j j j 1 1 1 j i V Z C C F F F F F F p p C & & & @ Z U U S S S 1.`.=.c n Y f F F F & & & C ",
"L L Z a a a n N _ _ _ _ { _ ` } } } ' ' ' ' ' ' ) ) l a Z A C F F F F F F p i C Z G g u n E E T E E _ o./ , u a p = F ; = = = & ",
"T T n n n c N +.o.) ) ' 6.9.:.:.*.*.*.:.-.9.:.:.:.:.v n a t p F C C C C F i i A L W Y n b +.+.O.+.+.M n d t p f $ & & & & & & & ",
"Y n k z v v ( O.( ) ) ) =.:.*.*.J.q w -.+.+.=.$.*.%.v B g t d G G G F F F a a S W W Y c 3 o.o.( o.o.N Y g p f F F C C F G G G F ",
"M z 1 v ' ' o.#.e %.:.;.[ [ T.5X8X/.v l s r a { ) 8 { 1.O.O.O.' +.+.' ) ) o.+.+.' ' ` ` O.+.O.O.7.t.Y @ i C F F = V S W L S S Y ",
"N z k k { O.O.( ( :.:.;.;.$.W.2X>X/.v n a i a O.' ( ' ' ( O.O.O.' ' ' ( ( O.O.O.' ' ' ' o.o.( ) -.9.M @ f F = F @ & S d.U U U I ",
"_ k k z { O.O.O.+.9.;.*.*.-.W.>X9X/.j n p @ g O.O.O.O.' ' ' ' o.O.o.( ( ( O.1.O.O.O.o.o.o.#.7 8 &.P.v X $ ; ; p @ = J y.p.U U U ",
"/ ' / _ c v v c c u u g G f N Y.:.Y./.-XI.7.{ Z y y l z z k k z z z z z z z z z c c j , 3 -.;.I.W..X!.5Xe.t @ = & C L u.p.y.y.U ",
"/ +.( 1.c c c n n t t C C & m ;.=.:.2X7XK.;.' C i s Y R n c c n n n n n n c c c R R a , B r.e.E.{.|.$XqX].u + F & C S d.d.u.u.S ",
"7 7 7 1.j g g g f F = = & * m :.%.:.}.$XXX^.9.C + p G g u u u g g g a a a u u u g g a r g ~ b #.E.E.^.6X).u X f G S A A J L L Z ",
"( ( ( { y = $ @ p @ p & = O m :.:.:.=X!.$X0X[.A & @ @ @ @ p p p p p p p t p p p p p p f f f X , @.-.Q.:Xe.u + C L d.A & & = & i ",
"/ ' ' { a - - F p p t @ = O m -.-.-.=X!.$XwX].A & = = = F = F F F F F F F J J J = @ @ $ = = @ g 3.<.,.cXt.d @ A y.U A & = = F p ",
"/ ' O.{ u F F F f f f C C p p p t d &.&.'. Xq.A @ p p p p p p S u.u.u.u.u.u.u.i.A A S u.J - - & & & O.e.+.t t f f & A S U L F p ",
"/ ' O.{ u f f F f f f C C p p p @ g -.%.'. Xq.A @ @ p p p p C S y.S u.u.u.S d.L Z A S d.J C C C & * ( e.+.t i p @ ; Z U U L F p ",
"/ ' O.{ , f f f f f f C C C p p @ g 7.:.[.;Xq.A & @ @ f f $ F S y.S y.y.y.S U Z i i Z W Z @ @ @ @ + N r.} t @ C & & Z U p.L F p ",
"N +.+./ j P G p Z C A C f f F F $ f H 4 @.E.2.C & C C & & & C l l n n l | 4.2.2.2.2.2.2.2.1.2.1.+.O.=.9.+.n Y Y C & C G Z C C i ",
"` +.o./ 1 n t     r . X f f f F F F F , 3.`.2.C & & & C C + @ j j j j 1 { =.$.$.$.$.[ [ $.$.$.$.$.%.$.&.) k l n t + & & C & C p ",
"b ' ) ' / 7 ( ( O.c c T P F F p C f ; @ ~ 2.E h p a a a g Q T 6 6 6 6 6 6.E.R.Q.Q.Q.~./.^.^.}.!.U.U.K.R.*.) _ v u J J ; ; = C i ",
"n { ) ) -.$.].bXcX:.;.0.N n a i p @ @ p t , t H n z z j } 0.w.;.;.;.;.$.].2X3X>X>X,XBXZXZXBXFXBX3X+X3X6X}.:.=.-.v n G & @ @ C & ",
"H 5.o.0 :.[ !.7X5XH.;.8.5 z j r @ @ + i . . t H z j 1 2 [ ;.;.&.;.;.&.9 ~.>X>X>X>X+XBXAXfXfXAXyX<X#XOX6X^.q *.-.( z a & p p C = ",
"G R v 3 =.;.&.I.Y.;.8.&.~.}.}.{.{.{.{.{.{.!.~./.}.}.}./.oX+XoXoX$X$XoX+X+X>XOXOXOXOX@X9X*XU.J.I.I.I.P.P.P.;.$.%.=.6.{ n n g p $ ",
"G Y j k w.;.;.;.:.;.:.&.-X2X8X,X2X3X3X3X3X>X>X>X3X3X3X>X>X>X>X3X3X3X3X>X>X>X>X>XOXOXOX7X{.*.w %.:.;.;.$.$.;.*.*.:.:.' n B n t @ ",
"Y Y c c 0.:.:.9.:.:.*.q ;X5X8X>X>X>X@X@X&X&X&X&X3X3X>X<X3X>X>X3X3X3X3X6X6X9X9X9X9X0X0XnX;XY.*.:.9.9.,.>.>.*.*.*.*.*.) c c c t @ ",
"H g a y E ' _ _ ) -.w w I.R.U.U.K.K.K.U.U.U.U.U.U.U.U.U.U.U.U.U.U.U.U.W.P.X. . .4.4.{ 1.N B c B n Y m B B ( ( 6 $.:.' z c l p $ ",
"F . r , a j k n v r.>.*.*.Y.*.*.*.*.I.*.*.:.:.:.:.*.*.Y.Y.Y.Y.*.*.*.;.).] l S S W W A + t t p p C C C p f n v 3 =.`.' z z l p $ ",
"H n c c c 6 n G h 5.3.O.1.+.2.O.O.O.2.+.2.1.1.1.1.1.1.2.1.1.+.' } 1.3.3./ I S S S W V C & = = F F F F F F F g T 5.=._ z z l t t ",
"T V.7.7.7.9.E C f f t p p p p p p p p p p p t p p p p p p p p t t t h p g U U S L L A C C = C F F F F F F p t p n v k z z n n Y ",
"B 0.;.-.:.Y.E & J - A & & & & & & & & & & & & = & = = & & & & & * * = * J L U S L L Z C C & & C F F F F F p t t n v v z z n n Y ",
"b :.q &.;.9.N @ = C p = = & C C C C C C C = ; ; = C C F F F F F = ; Z Z L L L L K K J C C A Z C C Z C F C C p i a Y M z z z n n ",
"/ cX2X-X&.:.m @ = C i @ $ @ F L L W l.Z.L $ ; ; $ p p C C C F F ; F x.F.l.Z C C F F = & A S L L L L G & C C C C p a l z z z n n ",
"7 bX>X2XK.Y.N & = C i p @ @ Z W U U z.C.Z @ @ ; p i i C C C C @ O @ m.xXk.A & C & & ; = A S L L S S C @ @ C Z Z Z C a n z z z n ",
"6 bX>X5X8 E g & p C p C & @ Z L S U k.b.U S G = @ & C & C & J n.n.c.M.hX..i C F & & G S U g.g.k.b.b.f.d.L C p p p Z l c c z z n ",
"/ MX0XMX> @ p p C C C C & & A u.u.d.Z.C.a.d.L & & & F F = @ L S.lXD.8.:./ r C F & C S U a.b.b.v.D.xXm.z.g.C f f i r a n c z z n ",
"N vX|.vX, @ C C C C C C & & C K L d.l.c.a.d.d.Z C & = F H f T jXjXjX*.:.v r & = & C S S a.b.b.v.m.D.m.v.k.Z p p t y l n z z z n ",
"G g j g p C C C C C C C C & C C C A d.U g.c.g.d.L S C . ~ V.r.kXkXkXY.:.b t & = & C L U f.c.b.v.z.z.m.xXC.Z i p a B n n k z z n ",
"J * & & C C C C C C C C C C C C & F L S h.b.k.U p.y.V . 1.7.Y.+X>X,XI.e.( t & = F C L U f.l.b.b.v.z.m.zXC.Z @ p n c c c n z z n ",
"J & J C C C C C C C C C C C & = = = i.u.h.b.k.S p.p.D . O.$.I.$X3X2X`.V.E i & = F C S S f.l.c.b.v.z.m.zXC.p X F Y c 4 c n z z n ",
"J C J C p C C p C p C C C C F F = = K Z S S U h.k.g.y.r 0.cX}.T.U.I.v u p i & = F C A V S d.f.a.s.s.a.k.U i X f T O.v c z c z n ",
"P & & & & ; @ O * o # o O O O O O O o o o o V Z.c.k.s.y hXNX2X:.:.:.g @ $ = = = = & = C S S d.d.U U y.j.S i   X m +./ z z B B T ",
"P C p C G F g m N 2.=.+.2.+.2.2.2.2.2.2.+.2.2.4. . ..._ q.{.W.' ' } J - = = = & & & = & A A L L L L L J H E b b +.@./ k z n h g ",
"K @ + i G u _ =.&.;X2X$X$X$X$X$X$X$X4X$XoX6X{.$.$.$.=.=.=.$.) x x x & - = = & & & & & & & & & C C C C . d 3.,.%.-.<.' k z l t @ ",
"P t j 1 v 2 0 U.K.9X<X<X>X>X>X>X>X<X&X@X@X9X$XY.I.P.I.I.H.I.q 5 5 5 u f h p p p p p p p C p p C C C C r c -.*.&.*.,.( l n G C C ",
"T N.=.=.|.{.7XeXuXtXtXtXyXyXyXyXyXtXBXtXtXtXBXnXnXnXeXeXeXnXnXeXnXnX9.3.` n n n n n n Y Y Y Y Y Y G 5.2.7.[.].W.*.%.( p p Z u.u.",
"T V.:.J.5X2XeXfXsXsXaXpXpXpXpXsXpXsXiXiXiXiXaXgXdXdXpXaXaXCXaXfXfXfX'.0.' k n n n n n n n l l l l l +.*.Y.].|.'.*.q b @ % J u.u.",
"c =.q q /.+XwXFXAXFXFXDXZXDXZXaXVXVXVXyXVXyXAXDXDXDXVXVXCXCXVXiXsXyXK.9 5 : : : : : : : > < < < < < 8 9 H.{.|.].e.r.~ @ = J p.y.",
"( cX/./.nXuX3X!.!.I.I.Y.;.+.W.#XOX%XwXwX+XL.R.%.=.:.(.XXoX$X3X<X1X0X0XqX6X4X4X4X4X4X4X4X X'.'.'.W.W.!.}.~.U.E.:.b Y H $ $ A p.p.",
") NX>X>XSXGX3X9 =.2 2 l t # / ^.~.~.,X7XH.0 v # # . $.q W.{.-X<X<X1XAXSXSXSXGXGXGXSXHXJXZX7X7XqXqXqXqXrX,XJ.,.7.,   f $ @ A p.U ",
"q 5X>X>X0XrXW.) { u a P J * Q hXV.[.*X-X!.'.7.Y W W ~ O.3.t.t.`.`.`.8X0X0X0X1X1X1X1X1XwX2X~././././.!.].I.) 1.{ a @ F G Z S y.I ",
"U.8X>X2XH.:.' c n t C C F ; L x.c.x.(.(.}.2X{.:.-.3.G & f f f f p p @.*.&.*.*.*.*.*.*.*.;.;.;.*.*.*./ z k y t p p & J L u.y.u.I ",
"W.5X2X5Xq =./ l g t i @ = % L v.n.b.!.!.%X0X/.&.-.3.p * ; ; * % * & o.;.[ ;.%.%.%.%.%.-.:.:.:.:.:.:./ l a i + p p = J d.p.p.d.Y ",
"Y.5X2X5XJ.*.` I G i p p F $ W v.n.x.W.!.}.2X^.P.:.7.p & = = F ; = C +.=.X.=.@.@.@.@.@.@.2.2.+.2.2.6.N n a Z C C F = A p.p.p.u.Y ",
"0 5X,X5XJ.:._ V C C p Z S S f.v.v.M.&.*.:.P.U.oX>X/.G * ; i i & & & F F G g h h f H g g f f f F f g F F Z S u.u.J = J p.p.S F f ",
"0 bX8X5XH.>.N & @ = = C L L f.b.b.x.7.7.w.+.`.NXmXbXG * ; p p & C C & & & @ % X @ & @ . + + + + + + * * C u.j.u.D & S y.y.J $ p ",
") '.R.W.&.>.N = $ $ F & F J L d.d.W N N T { ' @.3.1.f = ; C C C C C C C C F ; f f F H Q Q Q Q Q Q Q j.j.i.J Z S d.f.p.u.u.K C t ",
"/ :.:.:.:.:.n o O = C & & C C & & & @ C A L Z . . . @ @ $ F & & C C & & @ * * + . @ ~ B.B.| | | | | x.C.j.+ . V c.C.g.y.u.P C t ",
"_ 2.6.=.7.:.' M E a f Z Z Z C p C C C L L d.L A Z p C C Z F = C C C F F K J G g d n 1.7.8.8.8.8.6.8. .N.| a a S f.h.f.a.g.W C t ",
"N c v 3 =.$.W.$X|.3 n n l l n n n n n B B n R z c c U y.L = ; & & C K K G.B.5.3.7.-.`.'.~.2X2X2X2X2X`.w.X.} | E a & d.n.b.f.C i ",
"R z c j 7.$.~.0XbX< l j j j j l l z c c B n n z z k U p.V * @ + + + G C j.B.} 2.:.*.].~.oX0X0X0X9X0XW.$.=.2.4.5.p o d.b.b.f.V r ",
"R n M c 2.$.Q.,X X5 v v 3 v z z z c v M M n n n c z Y W Z a a a a a Y l ! 4.} X.;.&.W.'.}.$X$XoXoX$XR.*.=.2.N.5.g + d.l.l.f.A i ",
"Y n c k M c $.U.U.!.^.^.!.}.T.[ =.=.$.2.{ { { 2.=.=.=.+.6.:.:.:.:.:.).).`.[.[.E.;.=.=.6.X.] ] ] ] ] W.4X'.2.N.l.Z @ L d.a.a.g.h.",
"H n c c k l / ;.&.NXqXqXqXnX}.9 &.&.w :.' ` +.:.:.:.*.q !.}.}. X X X X;X X:X:X].:.7.1.4.R l u j u y '.mX XX. .| Z @ K L S f.b.Z.",
"f f a a a u v o.) ).P.P.!.!.!.T.W.W.R.].:.;.:.I.E.`.E.I.U.U.I.).q.).q.).).q.e.7.+.2.' { Y a a l n n ;.}.W.$.6.4.a @ J K J L f.j.",
"F f p t t i u 4 1 1 2 > e w R.5X2X8X5X5X-X{.{.~.{.|.].:XI.w $.' ' ' ' ' ' ' ' ' O.O.c n a t r a n m ) q &.%.9.7.n @ = = = Z p.u."
};
