/* XPM */
static char *_4a130f293a94cb7e99b8b74204d54e7cGAO7vPrXIuMSTuZ[] = {
/* columns rows colors chars-per-pixel */
"64 64 256 2 ",
"   c #010101",
".  c #090001",
"X  c #01030A",
"o  c #020A0C",
"O  c #090B0C",
"+  c #010B12",
"@  c #020D1B",
"#  c #030912",
"$  c #051315",
"%  c #0B1215",
"&  c #02141B",
"*  c #08171C",
"=  c #110B0F",
"-  c #082E1A",
";  c #031523",
":  c #071A26",
">  c #041A36",
",  c #010925",
"<  c #02242D",
"1  c #06282A",
"2  c #14272A",
"3  c #093B2C",
"4  c #133E2C",
"5  c #012633",
"6  c #022B34",
"7  c #0B2D33",
"8  c #022C3B",
"9  c #0B2D3A",
"0  c #022639",
"q  c #152B33",
"w  c #03323C",
"e  c #093936",
"r  c #15333B",
"t  c #133934",
"y  c #202E32",
"u  c #0D531B",
"i  c #176817",
"p  c #216D1B",
"a  c #0D412D",
"s  c #064327",
"d  c #12472B",
"f  c #0C5725",
"g  c #14552C",
"h  c #155A26",
"j  c #0C4332",
"k  c #0B473A",
"l  c #134332",
"z  c #144C3C",
"x  c #174738",
"c  c #0B5439",
"v  c #175736",
"b  c #285935",
"n  c #1D6525",
"m  c #1B6728",
"M  c #1B6538",
"N  c #0D643A",
"B  c #22652B",
"V  c #236B2B",
"C  c #246926",
"Z  c #277828",
"A  c #246737",
"S  c #2C7936",
"D  c #317433",
"F  c #022D44",
"G  c #072A4B",
"H  c #023343",
"J  c #03344B",
"K  c #073948",
"L  c #193947",
"P  c #023857",
"I  c #082E52",
"U  c #2D3A48",
"Y  c #023A61",
"T  c #0C4D43",
"R  c #064648",
"E  c #174C45",
"W  c #095744",
"Q  c #175647",
"!  c #034A5C",
"~  c #064758",
"^  c #194A56",
"/  c #06555A",
"(  c #195A57",
")  c #225847",
"_  c #274A56",
"`  c #2F5058",
"'  c #166748",
"]  c #186656",
"[  c #15795A",
"{  c #1A7049",
"}  c #266945",
"|  c #256754",
" . c #2C724F",
".. c #034C64",
"X. c #004E6B",
"o. c #044665",
"O. c #1A4E66",
"+. c #015364",
"@. c #02546B",
"#. c #035A6B",
"$. c #095969",
"%. c #155668",
"&. c #035472",
"*. c #025B73",
"=. c #025D7B",
"-. c #085875",
";. c #175A79",
":. c #074E70",
">. c #295668",
",. c #265374",
"<. c #275777",
"1. c #2C5066",
"2. c #036468",
"3. c #176467",
"4. c #02627B",
"5. c #036374",
"6. c #146478",
"7. c #0F7672",
"8. c #27667A",
"9. c #22747E",
"0. c #42545E",
"q. c #298627",
"w. c #338C31",
"e. c #3DA82B",
"r. c #3CAA1A",
"t. c #46A838",
"y. c #45AD2D",
"u. c #499B32",
"i. c #18877A",
"p. c #2E8B5E",
"a. c #48A646",
"s. c #50A94E",
"d. c #49A152",
"f. c #045D87",
"g. c #145E87",
"h. c #245D84",
"j. c #056A87",
"k. c #166786",
"l. c #06728A",
"z. c #057695",
"x. c #167798",
"c. c #116F92",
"v. c #27778C",
"b. c #277697",
"n. c #327290",
"m. c #077CA5",
"M. c #157DA6",
"N. c #2E7EAD",
"B. c #4D7B9A",
"V. c #647E8F",
"C. c #17859A",
"Z. c #138E93",
"A. c #298497",
"S. c #0386AB",
"D. c #018BAD",
"F. c #0A87A9",
"G. c #1687A8",
"H. c #0393AE",
"J. c #018CB3",
"K. c #018DBB",
"L. c #0788B7",
"P. c #1588B7",
"I. c #0493B8",
"U. c #1795B0",
"Y. c #3886A6",
"T. c #2888B4",
"R. c #3698B8",
"E. c #2993B0",
"W. c #1CADB6",
"Q. c #33A6B0",
"!. c #4899B9",
"~. c #538FAC",
"^. c #6497B1",
"/. c #4DA4B7",
"(. c #578592",
"). c #0696C5",
"_. c #1499C4",
"`. c #0891C6",
"'. c #349DC2",
"]. c #2B96C6",
"[. c #16A5CB",
"{. c #0CAADC",
"}. c #07A6D8",
"|. c #16A9D8",
" X c #19B2DC",
".X c #07ABD2",
"XX c #27AAD4",
"oX c #39ACD5",
"OX c #3BB1DA",
"+X c #2EA7C9",
"@X c #06ABE5",
"#X c #14ACE5",
"$X c #08B4EA",
"%X c #17B4E7",
"&X c #02BBFE",
"*X c #0ABAFC",
"=X c #07B6F5",
"-X c #12BCFD",
";X c #15BAF6",
":X c #01ADF7",
">X c #3AB8E8",
",X c #26BDF5",
"<X c #29BCF1",
"1X c #3BBBF3",
"2X c #3DB6FC",
"3X c #3DBBFE",
"4X c #3AB9F3",
"5X c #24B8EA",
"6X c #58ACDA",
"7X c #42B1D8",
"8X c #54ACD6",
"9X c #6AA9D2",
"0X c #48B5E8",
"qX c #44B5F4",
"wX c #4AB4F3",
"eX c #43B5FD",
"rX c #43BAFE",
"tX c #49B9FD",
"yX c #47B8F8",
"uX c #56B7EA",
"iX c #5CABD5",
"pX c #02C3FE",
"aX c #05CBFF",
"sX c #0DC9FF",
"dX c #12CAFF",
"fX c #15C2FB",
"gX c #00D3FF",
"hX c #24C2F7",
"jX c #3BC0F7",
"kX c #49C3FD",
"lX c #55C7FD",
"zX c #4CC0EE",
"xX c #75C9EC",
"cX c #68C8FC",
"vX c #7CCDFB",
"bX c #78CDF7",
"nX c #6AD5FB",
"mX c #75D2FD",
"MX c #7BD2FD",
"NX c #7AD5F8",
"BX c #6DC9EA",
"VX c #84C3DA",
"CX c #86C9E6",
"ZX c #86D6FD",
"AX c #93DBFB",
"SX c #9BDBFE",
"DX c #97D7F7",
"FX c #8BCDF3",
"GX c #B6DEFD",
"HX c #8BE8FF",
"JX c #96E6FF",
"KX c #A9E4FE",
"LX c #B3E3FE",
"PX c #BBE2FE",
"IX c #B3E8FE",
"UX c #C0D9F9",
/* pixels */
") v g h h h V V V C V V S S D D S  .W $.F.#X{.{.|.{.%X;X;X;X;X-X;X;X;X;X-X%X|.{.|..X|.G.*.#.M V C V V A h h g x x x l x x l x b ",
"v g f f f h m n n n n m Z Z Z Z Z { W +.F.{.}.{.{.}.@X*X*X*X*X*X=X*X;X=X*X$X}.}.}..X|.M.#.#.m m C B m m f h d j l j 3 a l 3 l x ",
"v h h f f h B B n p B V S S Z Z Z { W X.S.$X@X$X%X$XpXdXdXdXdXsXfXfXdXdXdX*X@X$X#X{. XF.@.+.n n C C C A h g d 4 l l 4 4 l a l x ",
"v g f h h n B B V Z Z Z ' ' 9.Z.Z.Z.l.z.z.z.z.j.4.=.&.o.o.....o.o...o.o.o.&.=.=.4.z.z.z.z.z.Z.Z.Z.7.W Q j l l a j j 4 4 l z k Q ",
"v f f h B m m B Z Z Z Z / +.M.#X@X{.K.H.l.+...F 5 < O                     # 5 < 6 +.+.l.I.I.@X@X=Xm.+./ k e j a j j 4 t k T T Q ",
"v f h h B m m m { [ [ [ 4.=.M.].].E.x.C.3.E _ 9 2 2 %     .               $ 9 q 2 ^ ^ 3.v.C.E.R.'.x.=.*...~ R j a a a a j z T Q ",
"M m V h h f f u ' i.i.Z.[.+Xx.P P P J P < o # # X X                       X X X X # # < H H P P J c.XXR.C.C.3.3 j l a a k z T Q ",
"V n m m f g g u 2.K.J.J.@X#Xx.F 5 6 6 e &   . .                             .         % 1 6 6 6 1 z.&X}.K.H.5.- 4 d l j k E E Q ",
"V n V h g v c f 7.`.J.J.|.XXv.8 9 7 7 e *   . .                 X X   X     .         % q 7 7 7 1 c.%X[.D.K.j.3 e j 3 3 z z E ) ",
"V C C g d k W c l.}.}.).g.;.K @ $ O % $ O     . .         r r r r L y X     X         X % * & $ O K k.k.U.}.z.R ~ ~ z z x t x E ",
"C n B d 3 R / ! z.@X{.}.8 5 %       X                     $.-.-.#.$._ + X               X X X X   & 8 J E.{.F.+.#.#.T E x 3 t E ",
"C C V d 4 R $.&.m.}.).).5 7 %                         X X =.=.=.4.=.O.@ X X . .           X       $ 1 K E..XS.&.=.4.R E x l t z ",
"V m A d 1 ~ oXaXm.< H 8               .           X : q 9 wXtXrXtXyX6XP 7 *                           # 6 5 j.pX*X:X6 1 e E E E ",
"V m V j 5 P oXdXM.5 9 9               .           X : 9 F wXtXrXrXrX6XP 8 ;                           o 7 < j.dX-X;X8 6 e Q E ) ",
"A m p 3.x.c.G._.%.% % %         X                   r ;.g.qXrXrX2X3X0Xj.k.H .             . X   .       % O ~ _.P.P.c.v.( k x Q ",
"V n p Z.%X[.=.=.8                     X . .       X _ U.F.rXrX3XrXrX>XL.I.!                 .         X     : *.&.*.|.XXv.e 3 z ",
"C C i Z.$X[.j.=.w                     X . . .     X ^ F.D.3X3XrXrXeX4XJ.I.!                           X     < #.#.#.@X|.v.R 3 d ",
"' ' M C.@XE.:.` 2       .         # : G ; X X   . X O.P.K.4X3X3XrXrX1XK.)...  X X   X @ > > o o + X       . : ^ ^ ^ |.[.x.K R E ",
"' W W z.`.x.; X X   .   .         : ^.>X8.1 2 X   X <.XX{.3X3XrXtXtXjX[.{.#.  X X     ` !.R.r 7 9 &     X . X + # @ L.L.c.+./ ( ",
"-.@...z.I.n.@                 X X G >XgXz.& 1 X   X h.%X@X3XrXtXtXrX3X#X=X*.  X X     >. X$XK w H &     .         X F.H.z.@.+.( ",
"l.l.l.l.l.>.@ X               X X : b.S.G.b.n.0 & ; 6._.).rXrX3X3XrX1X`.}.=.& * : -.-.x._.).< & * o             X X j.j.l.l.z.9.",
"H.D.I.j...^ # X X             X X $ ^ o.T.lXuXP 9 F 6.D.J.3X3X3X3XrX1XL.).4.6 3 e #X%X).D.J.#                 . X X / +.j.J.K.A.",
"H.D.I.j./ E o                   X + _ ^ Y.zX6Xo.P P 6.C.C.0XwXwXqXqX7XM.A.;.P P o.}.[.U.b.v.O             .     X X ! +.l.J.K.A.",
"[.[.|.4.w 7 X                       X X J j.f.8X6XuXv.J ~ nXnXnXnXnXBXP F b.uX8X8XK.I.%.; ;     X                 X H F k.[.}.Q.",
"@X}.$X4.6 1 X       . .     . . . . .   6 #.f.0X3XlXn.5 w xXbXbXNXMXVXH < x.kX3X2XD.G.L         X   . . .         X 6 5 k.|.@XQ.",
"@X@X$X*.< q X       . .                 6 #.=.uXkXcXn.> 8 xXbXbXvXvXVX0 ; c.lXkXyXF.U.^       X X       X         X 7 0 k. X@XR.",
"$X$X*X&.+ % X         X * & 2 r r r q 2 K P ! A.T.N.N.Y.Y.DXSXAXSXSXAX~.~.Y.N.T.T.l.k.^ 9 r q q r 2 * % X           * ; h.5X=X+X",
"*X*XsX..          X     H 8 ~ 3.$.2.$.$.~ 0 H ! @.o.T.lXlXLXLXLXPXGXKXAXJX!.! X.X.+.+.#.#.-.-.$.$.~ H 7 X X   .       X ,.,X&X7X",
"-X*XaX..        X X X X J J ! #.#.2.5.=.~ H K %.#.@.R.lXtXGXGXPXGXUXKXFXZX!.+.#.#.#.#.#.*.=.4.4.*.~ H w + X X         X ,.,X&XOX",
"-X*XaX..        < #...-.wXwXqX4XqXqXqX1XqXeX0XcXmXxXAXKXLXIXIXLXLXLXIXKXLXAXBXbXcXwXwXeXqXqXqXqX1XqXwX0Xf.+.w         X ,.,X&XOX",
"-X*XaX..        5 5.@.-.yXtXtX2XrXrXrXqXrXtXwXnXmXbXAXIXLXLXLXLXLXLXLXKXLXSXNXMXMXwXyXtXtXtXrXrX2XyXqX0Xf.#.w         X ,.,X&XOX",
"-X*XaX..        6 5.#.*.eXeXrXrXeXeXtXrX2X2XqXnXvXZXSXLXGXLXGXPXLXLXLXGXPXSXMXMXvXyXeX3X3XrX2XrXeX2X3X0Xf.2.w       . X ,.,X&X7X",
"-X*XaX..        6 *.#.5.rXrX3X3XrXrXtXrXtXcXcXmXMXvXAXLXPXIXLXPXLXLXGXGXPXSXmXvXMXcXcXtXyXtXrXrXeX2X3X0Xf.2.w         X ,.,X&X7X",
"-X*XaX..        5 4.#.5.rX3X3X3X3XrXrXeXcXZXZXvXMXMXDXLXPXIXLXLXLXLXGXPXPXSXmXMXZXMXMXcXtXeXrXrXtXtX3X0Xf.5.H         X ,.,X&X7X",
"-X*XaX..        : _ ^ O.6X6X0XqX1X1X4X4XlXnXnXnXxXxXAXKXSXLXLXLXLXLXKXKXKXDXVXCXCXCXFXBX0X1X4X4XjX0X6XiX%.^ q           ,.<X&XoX",
"-X*XaX..      X X o # @ P I g.P.L.L.L.L.S.F.M.=.*.X.!.ZXFXLXLXLXLXLXKXFXAX~.5 K K B.~.T.F.L.K.J.`.f.G J ; + X X         ,.<X*XoX",
"-X*XaX..      .     .   w w 6.U.F.K.K.I.I.`.U.*.+.~ !.HXZXIXLXPXPXPXKXZXHXY.& < 6 V.(.Y.G.H.H.H.I.#.6 q X X   .       X ,.<X*XOX",
"$X$XpX@.+ % X           ; ; w ~ ~ o.! ! ! ! :.N.T.N.!.^.^.DXSXSXSXSXDX^.^.~.n.n.n.1.>.O.~ ! ! ! ! 8 & * X           $ & <.5X$X+X",
"@X@X=X4.1 q X X                             , 9XkXcXN._ 0.vXvXmXmXvXVX>.U ^.HXHXNX5 5 +             X   X           7 8 k.|.@XQ.",
"@X@X=X4.< 7 o             X X X             , 9XtXuXY.1.0.vXvXmXmXMXCX8.` ^.MXZXBX6 6 *         X                   7 0 k.|.@XQ.",
"@X@X$X4.6 9 #               X           X + > 9XwXuXY.>.>.vXvXmXmXmXCX8.` ~.NXbXBXK K 1 X       X                   w 8 k.|.@XQ.",
"@X{.@Xz...^ #     .     .         .     -.$X'.T.B.B.8.! $.vXZXbXNXMXxX@./ $.#.#.5.rXlXb.0 < . .                     +.@.M.|.@XQ.",
"|.{.%Xz...R #   .       . .       X     =.$X'.R.V.~.8...-.vXMXNXNXNXxX@...$.$.$.6.lXlXb.> 5 X                     X X.X.M. X{.Q.",
"G.M.G.M.M.8.@ .             . .   @ 1.1.x.}.Y.O.U _ 8.G.G.bXMXmXNXNXnXM.P.%.2 q L T.T.N.b.b.: * : O               X M.G.M.M.G.A.",
"#.+.! S.#XR.:               . X   : /. X_.S.v.@     <.XX{.mXMXmXmXMXnXXX$X-.    X +.o.T.lXlXK 9 H ;   . .         X {. XG.X.+.$.",
"/ / R S.$XE.>                 X X 5 R.$X).F.n.&   X h.|.}.mXmXmXmXMXnX[.=X*.    X / ..T.kXrXK 0 F & X         X X X }.{.G.+./ 3.",
"e.t.u.W.&X+XY 7 &     .           + 9 P : X # X . X O.U.K.tXtXkXtXtX1XK.).!       o X : K K X X X X         $ 6 6 w *XfXG.R l E ",
"t.e.u.W.&XXXY 8 &     . . .       o 7 H &   X X . X O.G.J.eXtXrXrXtX1XL.I.!         X : 9 8 X         .     & w w H *X;XA.R l E ",
"t.e.r.W.pXOXP 5 &         .       X 2 3 $         X O.U.U.2XrX3XrXeX4XK.U.!           : r 9 X   X   .       @ 0 < w pXfXA.w s z ",
"t.t.y.i.z.x.x.z.~ $ * & X     .   X % $ o         X r $.-.2XrXrXrXeX0Xf.=.8     .     O & &           o * $ K m.l.l.z.l.%.R k Q ",
"t.t.y.v 0 P +X=Xl.- 7 7 X   . . .                 X : 0 J eXtXtXtXtX6XI F ; . . .           .         X q 2 6.*X#X{.8 5 w Q T ( ",
"t.y.y.n - R E.@Xz.P P P X X X                       * q r 1X1XqXrX3XiXP q *                 X X X X o & J K j.{..X[.3 1 e T T ( ",
"t.y.e.w.A 7.Z.`._.oXXX+X7 2 %                       X X o L.L.L.L.`.b.; X                   X     & 7 H !.+X_.K.K.J.j j k T T Q ",
"t.y.y.q.Z [ i.D.}.pX&X=X8 9 %     .             X   .   X S.J.H.D.H.v.,   . X               . .   & 1 P XXaX@XS.J.S.l l k z c v ",
"t.t.t.w.Z [ i.C.[.fX;X%XF F ; X X               .     X X C.G.G.G.G.n.@ X X                       ; 8 P oXdX|.G.G.C.j 3 j E c ) ",
"w.w.w.Z Z  .' %.c.P.M.M.x.b.%.G L q ; : O       .     X X t r L L L L # X X X     X   O * * q r q O.b.x.G.P.x.$.%.%.Q Q v z E ) ",
"Z Z Z Z Z } s 3 R &.+.#.|.XXG.&.$.O.H K &               X .           X           X   * 9 w $.$.$.G.%X+X=.@.~ 3 3 j | | ] T T ) ",
"D Z Z Z Z D u d T $./ 2.}.[.F.*.#.:.P P ;   X   X         . . . . . . . .     X X X X * H H @.*.&.S.{.W.4.$.T d d d | | ( T T ) ",
"n h f m Z q.t.t.w.f c c =.=.z.J.J.`.}.{.z.! ^ w 7 2 %   . . . . . . . .   $ 9 9 8 ~ ..x.[..XJ.S.J.z.&./ ] S A M A M d j W | | | ",
"n f f V Z q.a.a.q.u u f / ! l.U.L.`.|.%Xx.! $.H 0 9 @     X X X       .   & F 8 8 ..X.G. X{.H.D.L.l.+.W { Z A A M A a 3 W ] ] | ",
"h f c m m V w.w.q.Z Z q.{ [ 3.3.;.k.M.P.G.x.x.k.k.k.<.,.,.<.,.,.,.,.,.,.,.;.k.k.k.x.x.m.P.P.6.6.k./ c f w.w.S A M M 4 3 c Q W | ",
"g g g f h u C p w.a.t.t.a.s.} 1 8 J :.X.F.#X#X#X X|.%X,XhX,X,X,X,XhXhX,XhX%X#X X|.#X XF.&.&.H 8 0 3 v i a.y.w.M } M l 3 k z c Q ",
"v v f g g u Z Z w.t.e.e.r.t.V - 5 J O.X.L.:X:X:X:X:X&X&X&X&X&X&X&XpXpXpX&X&X:X$X$X:X@XG.&.X.H 5 < a h i t.y.w.' } A l 3 j E E Q ",
") ) ) ) b A  .S d.s.s.s.s.s.D - u u N N i.Q.Q.Q.'.'.oXOXOXOXOX>XOXoXoXOX7XOX+X'.'.Q./.A.] ] e e e v M n d.s.w.A S D l x E ) ) | "
};
