/* XPM */
static char *rcp32002084153126748[] = {
/* columns rows colors chars-per-pixel */
"64 64 11 1 ",
"  c #472D3C",
". c #39314B",
"X c #394778",
"o c #7A444A",
"O c #A05B53",
"+ c #BF7958",
"@ c #EEA160",
"# c #3978A8",
"$ c #A0938E",
"% c #F4CCA1",
"& c #F0E9BB",
/* pixels */
"@@@@@@@@@@OOO@@@oo@@@@@@@@@@@@@@@@@@@@@@@@@@@OO@@@ooo@@@@@@@@@@@",
"@@@@@@@@@@OOO@@@oo@@@@@@@@@@@@@@@@@@@@@@@@@@@OO@@@ooo@@@@@@@@@@@",
"@@@@@@@@@@OOO@@@oo@@@@@@@@@@@@@@@@@@@@@@@@@@@OO@@@ooo@@@@@@@@@@@",
"@@@@@@@@@@ooo+++oo   ooooooooooooooooooooo   oo+++ooo@@@@@@@@@@@",
"@@@@@@@@@@ooo+++oo   ooooooooooooooooooooo   oo+++ooo@@@@@@@@@@@",
"@@@@@@@@@@   ooo  @@@      @@     @@      @@@  ooo   @@@@@@@@@@@",
"@@@@@@@@@@   ooo  @@@      @@     @@      @@@  ooo   @@@@@@@@@@@",
"@@@@@@@@@@   ooo  @@@      @@     @@      @@@  ooo   @@@@@@@@@@@",
"@@@@@@@@@@   ooo  @@@oo$$$$XXXXXXXXX$$$$oo@@@  ooo   @@@@@@@@@@@",
"@@@@@@@@@@   ooo  @@@oo$$$$XXXXXXXXX$$$$oo@@@  ooo   @@@@@@@@@@@",
"@@@@@@@@@@   $$$$$$$$XX&&&&#########&&&&XX$$$$$$$$   @@@@@@@@@@@",
"@@@@@@@@@@   $$$$$$$$XX&&&&#########&&&&XX$$$$$$$$   @@@@@@@@@@@",
"@@@@@@@@@@   $$$$$$$$XX&&&&#########&&&&XX$$$$$$$$   @@@@@@@@@@@",
"@@@@@@@@@@   &&&&&&&&##&&&&#########&&&&##&&&&&&&&   @@@@@@@@@@@",
"@@@@@@@@@@   &&&&&&&&##&&&&#########&&&&##&&&&&&&&   @@@@@@@@@@@",
"@@@@@@@@@@   &&&&&&&&##&&&&#########&&&&##&&&&&&&&   @@@@@@@@@@@",
"@@@@@@@@@@   &&&$$$$$&&&&&&&&&&&&&&&&&&&&&$$$$$&&&   @@@@@@@@@@@",
"@@@@@@@@@@   &&&$$$$$&&&&&&&&&&&&&&&&&&&&&$$$$$&&&   @@@@@@@@@@@",
"@@@@@@@@@@   $$$&&&&&&&&&&&&&&&&&&&&&&&&&&&&&&&$$$   @@@@@@@@@@@",
"@@@@@@@@@@   $$$&&&&&&&&&&&&&&&&&&&&&&&&&&&&&&&$$$   @@@@@@@@@@@",
"@@@@@@@@@@   $$$&&&&&&&&&&&&&&&&&&&&&&&&&&&&&&&$$$   @@@@@@@@@@@",
"@@@@@@@@@@   &&&&&&&&$$$$$$$$$$$$$$$$$$$$$&&&&&&&&   @@@@@@@@@@@",
"@@@@@@@@@@   &&&&&&&&$$$$$$$$$$$$$$$$$$$$$&&&&&&&&   @@@@@@@@@@@",
"@@@@@@@@@@   &&&$$$$$XXXXXX#############XX$$$$$&&&   @@@@@@@@@@@",
"@@@@@@@@@@   &&&$$$$$XXXXXX#############XX$$$$$&&&   @@@@@@@@@@@",
"@@@@@@@@@@   &&&$$$$$XXXXXX#############XX$$$$$&&&   @@@@@@@@@@@",
"@@@@@@@@@@   $$$..XXXXX###################XXXXX$$$   @@@@@@@@@@@",
"@@@@@@@@@@   $$$..XXXXX###################XXXXX$$$   @@@@@@@@@@@",
"@@@@@@@@@@   $$$..XXXXX###################XXXXX$$$   @@@@@@@@@@@",
"@@@@@@@@@@   ...XX###XX###################XXXXX...   @@@@@@@@@@@",
"@@@@@@@@@@   ...XX###XX###################XXXXX...   @@@@@@@@@@@",
"@@@@@@@@@@   ...XX#####XXXX##################XX...   @@@@@@@@@@@",
"@@@@@@@@@@   ...XX#####XXXX##################XX...   @@@@@@@@@@@",
"@@@@@@@@@@   ...XX#####XXXX##################XX...   @@@@@@@@@@@",
"@@@@@@@@@@   ...XX###########################XX...   @@@@@@@@@@@",
"@@@@@@@@@@   ...XX###########################XX...   @@@@@@@@@@@",
"@@@@@@@@@@   ...XX###########################XX...   @@@@@@@@@@@",
"@@@@@@@@@@   ...XX###########################XX...   @@@@@@@@@@@",
"@@@@@@@@@@   ...XX###########################XX...   @@@@@@@@@@@",
"@@@@@@@@@@   ...XX###########################XX...   @@@@@@@@@@@",
"@@@@@@@@@@   ...XXXXX#####################XXXXX...   @@@@@@@@@@@",
"@@@@@@@@@@   ...XXXXX#####################XXXXX...   @@@@@@@@@@@",
"@@@@@@@@@@OOOOOOOO...XX#################XX...OOOOOOOO@@@@@@@@@@@",
"@@@@@@@@@@OOOOOOOO...XX#################XX...OOOOOOOO@@@@@@@@@@@",
"@@@@@@@@@@OOOOOOOO...XX#################XX...OOOOOOOO@@@@@@@@@@@",
"@@@@@@@@@@OOO@@@oo@@@@@@@@@@@@@@@@@@@@@@@@@@@OO@@@ooo@@@@@@@@@@@",
"@@@@@@@@@@OOO@@@oo@@@@@@@@@@@@@@@@@@@@@@@@@@@OO@@@ooo@@@@@@@@@@@",
"@@@@@@@@@@ooo+++oo   ooooooooooooooooooooo   oo+++ooo@@@@@@@@@@@",
"@@@@@@@@@@ooo+++oo   ooooooooooooooooooooo   oo+++ooo@@@@@@@@@@@",
"@@@@@@@@@@ooo+++oo   ooooooooooooooooooooo   oo+++ooo@@@@@@@@@@@",
"@@@@@@@@@@   ooo  ...      XX     XX      ...  ooo   @@@@@@@@@@@",
"@@@@@@@@@@   ooo  ...      XX     XX      ...  ooo   @@@@@@@@@@@",
"@@@@@@@@@@   ooo  ...      XX     XX      ...  ooo   @@@@@@@@@@@",
"@@@@@@@@@@   ooo  $$$oooooo$$ooooo$$oooooo$$$  ooo   @@@@@@@@@@@",
"@@@@@@@@@@   ooo  $$$oooooo$$ooooo$$oooooo$$$  ooo   @@@@@@@@@@@",
"@@@@@@@@@@   ooo  %%%oooooo%%ooooo%%oooooo%%%  ooo   @@@@@@@@@@@",
"@@@@@@@@@@   ooo  %%%oooooo%%ooooo%%oooooo%%%  ooo   @@@@@@@@@@@",
"@@@@@@@@@@   ooo  %%%oooooo%%ooooo%%oooooo%%%  ooo   @@@@@@@@@@@",
"@@@@@@@@@@   ooo                               ooo   @@@@@@@@@@@",
"@@@@@@@@@@   ooo                               ooo   @@@@@@@@@@@",
"@@@@@@@@@@        @@@@@@@@@@@@@@@@@@@@@@@@@@@        @@@@@@@@@@@",
"@@@@@@@@@@        @@@@@@@@@@@@@@@@@@@@@@@@@@@        @@@@@@@@@@@",
"@@@@@@@@@@        @@@@@@@@@@@@@@@@@@@@@@@@@@@        @@@@@@@@@@@",
"@@@@@@@@@@@@@@@@@@@@@@@@@@@@@@@@@@@@@@@@@@@@@@@@@@@@@@@@@@@@@@@@"
};
