/* XPM */
static char *dummy[]={
"64 64 255 2",
"bM c #0057e1",
"af c #010000",
"bu c #0158c8",
"bt c #040808",
"bj c #050718",
"br c #0556ca",
"bq c #06152e",
"#x c #065826",
"b. c #071814",
"bl c #0757ba",
"aH c #0775d0",
"aO c #07b2f4",
"au c #08140a",
"ay c #083b37",
"a9 c #0950a9",
"ag c #0a0101",
"#C c #0a3926",
".1 c #0a4628",
"bb c #0b1849",
".J c #0b3e2c",
".7 c #0b4736",
"#B c #0b581b",
"bS c #0bc9ff",
".6 c #0c3e31",
".K c #0c432d",
"#4 c #0c4c3c",
"#N c #0c523b",
"bQ c #0c98e8",
".L c #0d4233",
"b5 c #0d451b",
".4 c #0d5624",
".3 c #0d5a24",
"#y c #0d5b2a",
"a4 c #0e2b13",
"bK c #0e3c85",
".a c #0e4c44",
"b6 c #0e5247",
".2 c #0e542b",
"a8 c #0f2b55",
"bh c #112a2f",
"bk c #123970",
".M c #12432d",
".8 c #133d2d",
".H c #134334",
".G c #134b3b",
"#0 c #135242",
"#o c #13542b",
".B c #144a34",
"by c #144e93",
".F c #145927",
"ae c #150c0b",
"bx c #153c33",
".5 c #154a29",
".I c #154e43",
"bL c #162719",
".N c #173827",
".C c #175735",
"bE c #182d28",
".# c #184738",
"bs c #191513",
"Qt c #195647",
"#n c #196d1a",
"an c #1a120b",
"b8 c #1a624c",
".D c #1a6728",
"bO c #1a6c54",
".E c #1b642a",
"bg c #1d4369",
"#L c #1d6d2f",
"#M c #226928",
"bT c #22a1e4",
"bm c #255c39",
"ad c #256835",
"b7 c #26821c",
"bU c #26c5f0",
"am c #27150e",
"a5 c #271916",
"bf c #275372",
"#K c #277929",
"#z c #282e10",
"#p c #284728",
"aX c #292519",
"#A c #29532a",
"a1 c #29538c",
"bD c #296944",
"bp c #296aa5",
"#Z c #297733",
"bN c #2a6c4f",
"#m c #2c6d1d",
"b4 c #2c8328",
"#S c #2d3328",
"a0 c #2d4f47",
"#J c #304f16",
"#R c #308531",
"a7 c #33261b",
".c c #354926",
".b c #35542f",
"aI c #358fc9",
".9 c #36431a",
"#2 c #366f33",
".O c #373517",
".w c #378a35",
"#5 c #382a05",
"bX c #38952c",
".P c #3b3506",
".x c #3b9837",
".y c #3ca62c",
".A c #43983a",
".X c #443c0b",
"bY c #448d36",
"#r c #463806",
"#X c #463b16",
".z c #46a738",
"aq c #473728",
"bP c #47394c",
"#q c #48440b",
".v c #484518",
"#l c #48492c",
".0 c #4a9745",
"bF c #4b3229",
"bZ c #4bb334",
"#Y c #4d3309",
".Y c #4f6c2f",
"#T c #524910",
"bH c #525e65",
"a. c #533c16",
".Z c #55ac44",
"bc c #56709a",
"b0 c #56ca37",
"a3 c #574825",
"bz c #574839",
".u c #574917",
"aZ c #57514a",
".Q c #5a511a",
"#I c #5a5827",
"aW c #5b5435",
"b1 c #5dc945",
"aP c #5ed7f7",
"b2 c #61d13f",
"aY c #675648",
"b3 c #67d54b",
"#1 c #685219",
"#k c #685b29",
"aG c #6992a6",
"bW c #6a6537",
".d c #6b672f",
"#9 c #6c5031",
"bI c #6f6850",
"bA c #704b43",
"#Q c #736717",
"#j c #756a36",
".W c #766a2a",
"ao c #786447",
"aJ c #795949",
"#H c #7a6d33",
".s c #7a722b",
".t c #7a7539",
".R c #7a7843",
"bv c #7b5c55",
".e c #7c7233",
"ba c #845838",
"bi c #855949",
"av c #865b53",
"az c #866757",
"#w c #867838",
"be c #885933",
"bR c #886349",
"#F c #887947",
"al c #8f6c34",
".f c #91884b",
"bw c #937465",
"aA c #966955",
"b# c #976749",
"#v c #978647",
"aN c #97c8d6",
"aV c #98853c",
"bV c #995d45",
"bd c #99bacb",
"ah c #9a7b57",
"bB c #9a896a",
"#G c #9b7644",
"aw c #a06c47",
"a2 c #a0743e",
"aK c #a47748",
".V c #a7914c",
"aT c #a87957",
"#i c #a98856",
".r c #a99758",
"bG c #a9a395",
".S c #ac916a",
"#. c #ada25e",
"#u c #b4a463",
".U c #b59b5b",
".q c #b5a771",
".h c #b6a35c",
"bo c #b87d61",
"#7 c #b87e57",
".p c #b89967",
".g c #b9a668",
"ab c #bb884a",
"ai c #bb8a66",
"#6 c #bc8658",
"aM c #bc9236",
"a# c #c39539",
"ax c #c48957",
"#3 c #c4bdaf",
".i c #c5aa66",
"#8 c #c68c65",
"ap c #c69559",
"ac c #c89367",
"aa c #c9914d",
"aD c #c9aa36",
"#W c #cdb78c",
"bn c #cdc958",
".o c #cfb26e",
"aQ c #cfc32b",
"aE c #d0a852",
"a6 c #d1986a",
"aF c #d5d2ca",
"#a c #d6cbb1",
"#E c #dbc26b",
"## c #dbcc9f",
"aR c #e2b56c",
"ar c #e9d53b",
"#h c #eac679",
"#g c #eac887",
"#c c #ead5c8",
"#b c #eadad2",
"#D c #ebcd8c",
"aB c #efd64d",
"aU c #f1cf70",
"bC c #f3c887",
"#d c #f7e5b6",
"#O c #f9d686",
"aC c #f9f331",
"aS c #fad678",
"#e c #faeece",
".m c #fbda97",
"ak c #fbe852",
"#U c #fce8af",
"#f c #fddc7d",
".k c #fddc8c",
"as c #fdf434",
".T c #fedb84",
".l c #fedc93",
".j c #fee392",
".n c #fee897",
"aj c #feeb72",
"at c #fef738",
"#V c #fef9e8",
"#P c #fefbf7",
"#t c #fefdfe",
"#s c #ffe38a",
"bJ c #fff69b",
"aL c #fff844",
"Qt.#.#.#.#.#.#.a.#.b.c.d.e.f.g.h.i.j.k.l.l.m.m.n.o.p.g.q.q.r.s.t.u.v.v.v.v.w.x.y.z.A.#.#.#.#.B.C.D.E.F.F.C.G.H.#.#.#.#.#.GQt.I.#",
".I.J.J.K.L.J.M.M.N.O.P.Q.d.R.S.S.i.m.m.T.T.T.k.j.o.r.U.U.h.V.W.W.X.P.X.X.X.Y.A.A.Z.0.K.K.K.K.1.2.3.4.4.4.5.J.J.6.H.L.J.J.G.I.7.L",
".#.8.M.K.J.8.#.9.9#..i###a#a#b#c#d#e#e.T#f#f.T.T#g#h#g#g#h.o#i.r.f.f#j#k.d#l#m#m#n#n.B.G.G.B.5#o.4.4#o.F.5.K.H.H.H.L.H.G.H.G.7.7",
".G.7.H.8.K.N#p#q#r#g#s#e#t#t#t#t#t#t#t#s#f#f#f#f.T.k.T#f#s#h#.#u#u.g#v.s#w.u.X#p.F#x.F#o#o.2#y.3.3.3#y#y.2.L.L.6.J.L.I.G.K.J.L.#",
".#.L.6.6.N#z.O#r#r#h#f#e#t#t#t#t#t#t#t.k#f#f#f.T.T.k.k.T#s#g#u#u#u.g#v.W.s.Q#r.9#A.F#B.3#B#B.3.3.4.3.3.3.1.1.K.K#C.L.G.G.H.M.L.#",
".G.M.H.#.9.9.R#v#w#D#f#e#t#t#t#t#t#t#t#s.T.T#f.T#E.o.o.o.o.h#F#w#w#G.e#H.e.W#k#I.9#J#K#L#L#M#M.D.F.F.E.E#o.2.2.2.C#N.7.7.K.M.6.#",
".#.M.H.N.X#r#..q.i#O#f#e#t#P#t#t#t#t#t.k#O#O#O.k.i.V.r.r.U#v#Q.W.W.W.W#H.W.e#w#k.X.v#R#K#K#K#K.D.D#M#M#M.E.4.3#y.C.2.1.K.K.L.L.#",
"#p#p.N#S.Q#T.r.g.U#O#f#U#e#V#P#t#t#t#t#d#U#U#U#d###W#######W.V.V.r.r#v#v#v.e.e#k#r#q#m#m#m#K#K#K#M#M#M#M.D.F.F.3#y#o.1.2.7.7.H.G",
"#l#X#X.v.s.s#.#u.U#O#O.T.k#c#P#t#t#t#t#t#P#P#t#t#t#P#t#t#t#V.l.j.j.n.o.h.g#w#H#I#r#Y#q.X#q#Z#K#K#Z#Z#M#n#M#M.E#B.4#o#o#o#N#0.GQt",
".v.X.X.u.t.e#u.g.i.k.j#s#s#d#P#t#t#t#t#t#t#t#t#t#t#t#t#t#t#V#s.j.j.j.o.U#u#w.W#1#r#r.X.P.9#2#2#K#Z#Z#M#M#M#M.E.4.3.3#y.2#N.a#NQt",
"#k.u.Q.Q#k#k#F.f#v.h.i.i.h#W#c#c#c#c#c#c#c#c#c#c#a#3#3#3#3#W.i.i.o.o.h.U#u.r.V#w#1#k.Q.Q.Q.b#2#m#m#M#M.E.E.E.E.F.E.E.3.4#4.a#NQt",
"#w#w#w.W#r#r#r.P#r.P.P.P#5.u#6#6#7#6#6#6#6#6#7#8#9#5.P.P#5#5#r#r.W#Q#v.g.U#D.n#g#u.g.t#w#H.X.X.X.X.9.5#B.3.F.3.E#M.E.3.4#N.a#NQt",
".e#H#H.d.Xa.#X.O#Xa.a..u#T#Qa#a#a#a#a#a#aaab#i.S#9.O#X#q#q#qa.a.#j.d.Vac.U#h.k#E.r.r#w#w.s#T#T#T#T.v.9#p.5#o.2ad.E.E.4.4#4.G.GQt",
"#H#r.X#qa.#Xaeafagahai#Eajajakakakakakakajal#ra.amafan#q.X.Qao#j.v.X#Gapapalal#w#H#w#.#.#.#u.g#w#H.t.v.9#p.J.1.E.D.E.4.4.7.L.L.G",
"#j#X.X#q#Taqagafafahabarasasasasasatasataj.s#5.Pauafae#r.Pa.av#ja.#rawaxaxal.W#H.W#H.g#u#u.g.g#w.W.s#T#r#Say.Had#M.E.3.4.K.L.L.G",
"#H#X#q.PaeanazaAal#EaBaCaCasasataBaDaE#Q#Q#WaFaFaGaHaIaFaF#3aJ#ja..PaDaBaBaaaKap#h.o#w#w#w#k#1#v.r.r#w.W#l#C.1ad.E.D.3.3.K.J.7Qt",
".W#X.v.Pafag.Saca#akatasasasataLaBaM#6#r#5#3#t#taNaOaP#t#t#c#9#ja..PaQaLataE#7aR.naS.W#H.W#r#r#v.i.g#w#w#I#C.5ad.E.D#B.3.1.J#4Qt",
".W#q.u.OafagaTaxaMaBatatatataLaLaUaa#8a.#5#a#t#taPaOaP#t#taF#9#9#Y#5aQatataE#7aE#saU#j.t#H#q.X.r.i.gaV#waW.L.5ad.D.E.3#x.K.6.7Qt",
".uaeanaXaAal#EaBaraLasasataBaDaEab#1#9#GahaYaZa0a1aHaI#t#t#baT#i#Ga2aratataE#7aE.k#h#T.u.uaeaea3#1#1.Q.Q.Oaua4ad.D.E#B.2.B.K.L.G",
"#Xafafa5a6aEajaLatasasataLaUaMac#G#r#raba6a7afafa8a9aI#t#t#b#6#6ap#6arasataE#7aR.n#O#r#r#rafafa7#X#X.O.va5afauad#M#M.4#o.M.M.8.#",
".9b.b.#Sb#alaBatasasasaraBaEalb#ba#1a3a6#WaZbba8bcaGbd#P#t#baE.oabaxarasataE#6#6.U.Vbebe#kafafa0a1bfbgbfbhafauad.Dad.5#o.K.K.8.#",
"#p.H.H.M#Y#raUatatatataEaba2#Y#ra.bibi#f#eaGa9a9aN#t#t#P#t#V.k.mabaxarasataE#8al#r#Ya6a6aiafbjbkblblblbla8afaubm#Mbm.1.K.L.6.6.H",
".B.K.K.5.v#qbnararaBaLaEbo#G.u.u#9bibiaS#daGbpa1bd#V#V#V#V#e.T#Oab#6aratasaEaxb##5#X#GaTawbjbqbka9a9blbrbkanbs.b.F.C.M.H.6.6.L.B",
".B#B.4.E#Z.Y#J#Y#Y.Vaa.W#5#1.pai#ibabiaS.k.l.n.j.l.T.T#O#O.k.T.kapaiarasataEacaYafafafafbtbua9bbafafaZbvaAa6bwagafbtbx.H.L.K.5bm",
".#.3.4.E#Z#2#J.X#Y#ia6#H.P#1ai#8#7baba#O.T.k.k.T.k.T.T.k.k.k.k.lab#6aBatataE#8aJafafafafbtblbybbafafbzbvaAacbwagafbt.N.M.K.1.5.C",
".##o#y.F#K#2#J.9#Xahai#9#5#1aiax#7alb##haSaSaSaS.T.k.l.j.m.m.k.lapaxaBakakaE#8aJafafafafbtbybybbananbAaAaTa6bBaeaeae.N.8.K.1.1.F",
".#.F#o.F#K#Z.F.2#o.M.#b.afa5biba#G.m.Tapaxaxax#7#a#t#t#t#t#e#f.T#O.TaEa#aaaxacaJafafafafafafafbwapabbC.T.T.TbCbabvaYafaf#C.K.2.C",
".B#o.4#obD#2#A#Abm.M.Mb.afa5azbiaT#U.maaabab#6#7###V#V#V#V#e.T.m.m.n.oaiacaca6bvafafafafafafafaAapabaR.k.T.T#gbebiaYagaf#C.1.2.C",
".C#o#o.5b.a4auauau#C.M.NbEaXbsanbFaT#G#hbCbCbC#g.m#d#d#d#d##aaap#GaKbFa5a7a7a7anafbtbEbEbEaZbzaTaxaa#h.k.T.TbCaKbobwagaf.M#o#o.C",
".F.F.E.1afafafafafbE.B.G.IbEafafa5azav#O#s#f#f#f#faSaSaS.T#h#7#6bebaanafafafafafafbt.Mbx.#avbi#7axax#h.k.T.TbCax#8bBagaf.5.C.2.C",
".C.5a4.N#F#F#F#FazaXb.b.b.b.afafae#Sa7#O.n.l.l.l.l.l.l.j.nbCaibGbvbHbhbjbjafafafafbt.7.L.#bIao.S#8axbC.m.k.TaSabaxahagaf.1#o.2.C",
"bma4afa7bJ.n.n.n#UaXafafafafafafafafafa2aKa2aKaKaKaKaKaKaKbaa7#SbHa1a1bKa1bqafbsa0.#.7.G.#.caqaJb#alaxapaR.T#O#h#h#WbzaY#o.4.4.C",
"bmbLafa7#s.T.T.T#Ua5afafafafafafafafafaJaJbibibibibAbAbAbibFafbjbybububrbMbbafbLbNbO#0#0.G.K.NaZbibaai#8aR#s.T#s.j#Dbebi#A#o#y.C",
"bmbLafa7#s.TaRaR#Wa5afa5bFbFbz#9aqafafbfbHbPbFbFbvahahahahaz#lbHbybraHbQbQbya8bhbx.8#0#0.G.L.8a0bzbzbzbz#i.jaSaRaR.oawaT#Sa4a4#o",
"bmbLafa7.j.lapaxaiamafaqbRaKa6a6bwafafa9a9bbafafbI.o.g.g.g.g.gbda1braObSbSaHblbkafaf.G.G#0.Hbx.6#C.NafafaWbJ#Oabab#6aca6anafaf.5",
"bmbLafa7#ObC#6#7.SbsafbFbib##8apbwbjbbaHaHa8afafbI.i.g.i.i.i.ibGbHa1bTaOaObQaHbybbbq#N#4.7.H.8.NbEbEbsbsao#OaRaxaxaxaxaxa7anan.5",
"bmbLafamaa#6bebaaJaeafbFbib##8axbGbfa9aObUbgafafbI.g.o#s.k.k.k#d.qbGbpbububQbUbTa9by.K.K.L.H.8auafafaZbvaAaaaxaxaxaxaxaxazbvbvbm",
"bmbEafa5ap#8bVbiazanafbFbib##8acaGbybMbSbUbgafafbI.i.o#s.T.T.T.TaEaEbpbrbrbQbSbQbubl#C.K.6.L.#auafafbzbib#apaxaxax#6axaxaAavavbm",
"bmbLafa5#8ai#9aZaYa5aebFbVbRbwbwbcbybuaObUbkafafaZbB.q#D#g#g#g#DbBbBbpbrblbQbSbQbublbEbEbE.K.#auafafbzbiaAai#6axaxax#6aiaJaYbAbm",
"bmbLafa5#8aiamafagaYbvaTa6azagagbqbyblaObUbgafafafafambabababa#9agafbKbublbQbSbQbua9afafaf.K.#auafafbzavbibabe#8ax#6babianagag.5",
"bmbLafamap.pbsafagaYbiaTa6azafafbba9blaObUbgafafafafa5azavavavbvagafbkbla9bQbSbTbla9afafaf.MbxauafafbzazbvaJb#aiaiaibiavanafaf.5",
".#.5.5.Nama5btafafaeaeananbsbx.8ay.a.abqbq#l.d#kbW.d#laeaeananaeaW.dbIbIbIbxbqbqbjbqbXbXbY.x.x.wbX.0#SaeaeaeaeamananaeaebE.8.N.C",
".##o.C.Mafafafafafafafafafau.#.7.L.H.Hafaf#l.t.e.e#w.vafafafafaf#j.e.e.s#wamafafafbt.Z.Z.Z.y.y.zbZ.Za4afafafafafafafafaf.8.H.#.C",
".#.K.2.5#p#p.b.c.b#p#p.NbE#C.2.2.Nb.a4aYaY#F.f#v#w.s#jaZaYaZ#laq#j.s.s.s.WbWaYaWaqaq#A#p#AbZb0b0bZb1bY.Y#2.b.b#p#S.NbLb..L#4.7.B",
".I.6.K#o#R#K.x.A.A#R#R#L.E#o#y#y.Nafaf.q.i.h.g.g#v.W#v.i.o.r#w#w.s.s.W.s.W.r.o.r#w#jafafbtb2b2b2b2b2b3b3b1.z.zb4#Z#Zb5.K.I.I.7.L",
"Qtbx.L.5#Z#K.wbXbXb4#K#n#B.4.F.C.Nafaf.r#u.g.g.g#v.W.f.o.o#..e#w.e.s.W.W.W#i.g#v.W#kafafbtb3b3b3b3b3b1b3b0.y.y#n#K#Zb5.1.a.I.7.G",
".Ibx.M.1.C.F#Z#Rb4bXbXb4b4ada4bLaXaZaY#..g#i#v#v#w#w#jaZaZbz#Saq#j.WaV#v#v.r.g.r#v.f#S#S.c#2.w.w.wbX.x.AbZb0bZbXbX.w#B.2#4#0.#.#",
"#0bx.M.1.1b5ad#K#K.A.z.zbZ.YafafaX#W.q#u.g#F.W.W#H#wa3afafafafafao.W.r.g.g#u#u#u.g#u.t.t#ja4#C.1#B#Bad#L.xb3b1bZ.z.0#B.3#4#0.H.H",
"#0.H.H.K.M.1bm.E.D.wbXbX.z.Ybsanaq.q.h.r.r#F.W#H#k#k#XaubjbtafbtbI.s.r#u#u.h.h#.#u.U#v#v#F.c#p.5.2#oadad.wbZbZ.y.z.x#n.D#N#0.B.#",
"Qt#N#0.G.L.H.J.1b5.2.4.D#K.Y.t.t#w.g.p.e.W.W#H#waXafau.#.#bEafagao.W.V.g.h#.#.#u.U.i.j.j#O.s.R.c#C.1.4#o.D#m#K.z.y.x#K#K.C.I.aQt",
"Qt.G#0#4.L.L.6.K.1#o.4.D#K.Y.t#H#F.g#u.s.W.e.t#F#Safb..L.L#Cafbtao.e.r.g.h.h.h#u.U.i.T.T#O.WbW.c.J.K#o#o.E#K#K.z.y.A#K#K.C.Gb6Qt",
"Qt#0.a#4.L.L.L.7.7.B#o.F.D#I.t#H#w.r.r.s#H#k#kbWbLafb..L.L#CbtauaW#I.f.r.r.U.h.g.i.i#f.T#OaV.f#l#p#p.5.5.E#Kb7.z.z.x#n#L.C.G.aQt",
".Gb6#N#4.M.8.#b6#0.7.Lb.afa5.t.s.s.W#H.e.RaXafafafafb.bx.6.H.6.Nafaf.u.s.W.V.h.o.j.k#O#f#f.T.n#v.W.R.c#C.Fb4b7.z.z.x#B.2.L.6#4Qt",
".##N#4#4.K.1.G.I.G.K.7b.afa5.t.e.s.s.e.e.taXafafafafb..H.K.L.J.8btaf#I.t.W#i.p.o#s.T#O.T.T.T.jaV.W.t.c.J.F#Kb4.z.z.0#B#y.M.L.GQt",
".##N.G#0b8b8.7bx.KQtbObhafa5.t#H.W#H.s.s#jbWbWbIaXafb..H.K.K.K.6bxbE#I.e.W.r.p.o.k.T#O.k.k.T.jaV.W.R.c.J#o#K#K#Kb7#K#B#y.B.K.#Qt",
".I#N#4#0bObN.1#C.Kb8bObhafa5.t#j.e.e.t.s.s.s.s#Fa7afb..H.K.K.K.L.H.6.Y.t.e.r.i.o#s.T.n.n.n.nbJaV.W#j.cbx.C#K#K#K#K#Z#B.3.1.J.GQt",
".Ib8QtQt#4.G.C.Fbm#CbE#z#5.O#I.Q.Q.Q.Q#H.e.s.e.Ra7afb..#.H.L.L.K.B.G#S#z#z#j#v.V.o.iaWaWaWaWaWah.V.S#Sb.b5b4#Z.D.D.E.4.3.K.J#0bO",
"QtbObOb8.J.KbDadbDauaf#5.u.v.X.X#X.X.X#j#H.s#H.Ra7afb..#.H.H.L.L.G#0auafafa3.e#w.g.Vafafafafafbw.g#W#Safa4b4#Z#B.3.3.4.3.M.Jb6bN",
".IbObOb8.J.KbmadbDauaf#z#q#X#X#X#X.X.X#H.t.t.R.fa7afbt.K.J#C.Jay.I#0b.afaf.Q.s#v.o.SafafafafafbB.o#W#Safa4b4#Z.3#y#y#y.C.L.J#0bN",
"Qtb6b6b6.J.KbmadbDauaf#z#qa3#9#9#9#9#9#I#I.O.O.O.c.c#A#Z#M#Madadadadb.afafa3#w#j#j#jbFaqaqaqaq#l#lbzbsafa4.D.E.3#y#o.5.B.CQtQtb8",
"bN#N#4#4.J.1bmadbmauaf#z#qa3bibabibiaJ.X#Xbtafaf.b.0bY.xbXbX.xbY#K#Rauafafa3#w#k#5#Xavbibiavazaeafafafafa4.F.4.3#y.B.K.8b8bNQt#0",
"b8.#.G.G.K.1bD#L#2bLae.Oa3#9b#b#b#bibia3a3a7anae.c.w#R#R#R.w.w.wb4#Ra4afaf.v.W#k.ua3alb#b#b#aAbFa5a5aeafb..C#o#o.2.H.8.6b6b8#0.I",
"#0.J.L.L.M.1ad#K#2#J.v#9bib#aiac#ibibibRaobzaq.9.b#M#L.D#L#L#K#K.w.Aa4afaf#z.Xa3aobRax#8#8#8.paAavaza5afb..K.K.K.1.J.J.L#4#4#4.H",
"b8.#.#.G.#.BbDb4#2#J#q#9avaAaiai#ibabRavbvaW.v.v.bbDbDbDbNbD#Z#R.w.AbLbtbt.O#laWbRaAaxaxaxax.pb#biazaXbtbL.G.#.G.#.#.G.GQtQt#0.I"};
