/* XPM */
static char *c29fa7e32d6544dfbdd29463de0eeaacna1q6jNQUt7N7wVJ[] = {
/* columns rows colors chars-per-pixel */
"64 64 256 2 ",
"   c #010000",
".  c #0A0101",
"X  c #040808",
"o  c #150C0B",
"O  c #08140A",
"+  c #1A120B",
"@  c #071814",
"#  c #191513",
"$  c #050718",
"%  c #271916",
"&  c #27150E",
"*  c #162719",
"=  c #0E2B13",
"-  c #382A05",
";  c #3B3506",
":  c #292519",
">  c #33261B",
",  c #373517",
"<  c #282E10",
"1  c #06152E",
"2  c #182D28",
"3  c #0B3E2C",
"4  c #0A3926",
"5  c #133D2D",
"6  c #173827",
"7  c #0C3E31",
"8  c #083B37",
"9  c #153C33",
"0  c #112A2F",
"q  c #2D3328",
"w  c #443C0B",
"e  c #463806",
"r  c #463B16",
"t  c #533C16",
"y  c #4D3309",
"u  c #473728",
"i  c #4B3229",
"p  c #0B581B",
"a  c #0D451B",
"s  c #36431A",
"d  c #304F16",
"f  c #196D1A",
"g  c #2C6D1D",
"h  c #0C432D",
"j  c #0A4628",
"k  c #12432D",
"l  c #154A29",
"z  c #0D5624",
"x  c #0D5A24",
"c  c #0E542B",
"v  c #0D5B2A",
"b  c #065826",
"n  c #13542B",
"m  c #145927",
"M  c #0D4233",
"N  c #0C4C3C",
"B  c #0B4736",
"V  c #134334",
"C  c #144A34",
"Z  c #134B3B",
"A  c #184738",
"S  c #0C523B",
"D  c #175735",
"F  c #284728",
"G  c #354926",
"H  c #29532A",
"J  c #255C39",
"K  c #35542F",
"L  c #1B642A",
"P  c #1A6728",
"I  c #1D6D2F",
"U  c #226928",
"Y  c #277929",
"T  c #256835",
"R  c #297733",
"E  c #366F33",
"W  c #48440B",
"Q  c #484518",
"!  c #574917",
"~  c #5A511A",
"^  c #524910",
"/  c #685219",
"(  c #574825",
")  c #5A5827",
"_  c #574839",
"`  c #5B5435",
"'  c #48492C",
"]  c #685B29",
"[  c #6C5031",
"{  c #4F6C2F",
"}  c #766A2A",
"|  c #7A722B",
" . c #6A6537",
".. c #7A6D33",
"X. c #756A36",
"o. c #7C7233",
"O. c #7A7539",
"+. c #6B672F",
"@. c #736717",
"#. c #0B1849",
"$. c #123970",
"%. c #0F2B55",
"&. c #0E4C44",
"*. c #154E43",
"=. c #135242",
"-. c #195647",
";. c #0E5247",
":. c #2D4F47",
">. c #1A624C",
",. c #1A6C54",
"<. c #296944",
"1. c #2A6C4F",
"2. c #1D4369",
"3. c #275372",
"4. c #57514A",
"5. c #675648",
"6. c #795949",
"7. c #7B5C55",
"8. c #704B43",
"9. c #786447",
"0. c #7A7843",
"q. c #6F6850",
"w. c #525E65",
"e. c #47394C",
"r. c #845838",
"t. c #885933",
"y. c #867838",
"u. c #8F6C34",
"i. c #A0743E",
"p. c #855949",
"a. c #865B53",
"s. c #995D45",
"d. c #886349",
"f. c #976749",
"g. c #887947",
"h. c #9B7644",
"j. c #966955",
"k. c #9A7B57",
"l. c #866757",
"z. c #A47748",
"x. c #A87957",
"c. c #B87E57",
"v. c #A06C47",
"b. c #937465",
"n. c #B87D61",
"m. c #C07F49",
"M. c #2C8328",
"N. c #38952C",
"B. c #378A35",
"V. c #3B9837",
"C. c #308531",
"Z. c #3CA62C",
"A. c #26821C",
"S. c #43983A",
"D. c #448D36",
"F. c #46A738",
"G. c #4BB334",
"H. c #56CA37",
"J. c #61D13F",
"K. c #4A9745",
"L. c #55AC44",
"P. c #5DC945",
"I. c #67D54B",
"U. c #98853C",
"Y. c #BC9236",
"T. c #C39539",
"R. c #C9AA36",
"E. c #E9D53B",
"W. c #FDF434",
"Q. c #FEF738",
"!. c #F9F331",
"~. c #CFC32B",
"^. c #978647",
"/. c #91884B",
"(. c #BB884A",
"). c #A98856",
"_. c #BC8658",
"`. c #A99758",
"'. c #B59B5B",
"]. c #A7914C",
"[. c #B6A35C",
"{. c #ADA25E",
"}. c #9A896A",
"|. c #BB8A66",
" X c #B89967",
".X c #AC916A",
"XX c #B4A463",
"oX c #B9A668",
"OX c #B5A771",
"+X c #C48957",
"@X c #C69559",
"#X c #C9914D",
"$X c #D0A852",
"%X c #C68C65",
"&X c #C89367",
"*X c #D1986A",
"=X c #C5AA66",
"-X c #CFB26E",
";X c #E2B56C",
":X c #EFD64D",
">X c #FFF844",
",X c #FBE852",
"<X c #DBC26B",
"1X c #EAC679",
"2X c #FDDC7D",
"3X c #FAD678",
"4X c #F1CF70",
"5X c #FEEB72",
"6X c #CDC958",
"7X c #0E3C85",
"8X c #144E93",
"9X c #29538C",
"0X c #0757BA",
"qX c #0950A9",
"wX c #296AA5",
"eX c #0158C8",
"rX c #0556CA",
"tX c #0775D0",
"yX c #0057E1",
"uX c #56709A",
"iX c #6992A6",
"pX c #0C98E8",
"aX c #07B2F4",
"sX c #22A1E4",
"dX c #0BC9FF",
"fX c #26C5F0",
"gX c #5ED7F7",
"hX c #358FC9",
"jX c #A9A395",
"kX c #CDB78C",
"lX c #C4BDAF",
"zX c #EAC887",
"xX c #F3C887",
"cX c #FEDB84",
"vX c #FDDC8C",
"bX c #F9D686",
"nX c #FEDC93",
"mX c #FBDA97",
"MX c #EBCD8C",
"NX c #FFE38A",
"BX c #FEE392",
"VX c #FEE897",
"CX c #FFF69B",
"ZX c #D6CBB1",
"AX c #F7E5B6",
"SX c #FCE8AF",
"DX c #DBCC9F",
"FX c #97C8D6",
"GX c #EAD5C8",
"HX c #EADAD2",
"JX c #FAEECE",
"KX c #FEF9E8",
"LX c #FEFDFE",
"PX c #FEFBF7",
"IX c #D5D2CA",
"UX c #99BACB",
/* pixels */
"A *.-.Z A A A A A V Z D m m L P D C A A A A S.F.Z.V.B.Q Q Q Q ! O.| `.OXOXoX X-XVXmXmXnXnXvXBX=X[.oX/.o.+.G K A &.A A A A A A -.",
"M B *.Z 3 3 M V 7 3 3 l z z z x c j h h h h K.L.S.S.{ w w w ; w } } ].[.'.'.`.-XBXvXcXcXcXmXmX=X.X.X0.+.~ ; , 6 k k 3 M h 3 3 *.",
"B B Z V Z V M V V V h l m n z z n l C Z Z C f f g g ' +.] X././.`.).-X1XzXzX1XzXcXcX2X2XcXJXJXAXGXHXZXZXDX=X{.s s A 5 3 h k 5 A ",
"A M 3 h Z *.M 3 7 M M c v v x x x v c n n m b m F w ! y.| ^.oXXXXX{.1XNX2XcXvXcX2X2X2X2XNXLXLXLXLXLXLXLXJXNXzXe W F 6 h 5 V B Z ",
"A M k V Z Z M 4 h h j j x x x z x x p p x p m H s e ~ | } ^.oXXXXXXXzXNXcXvXvXcXcX2X2X2XvXLXLXLXLXLXLXLXJX2X1Xe e , < 6 7 7 M A ",
"A 7 k h B B S D c c c n L L m m P U U I I Y d s ) ] } o...o.h.y.y.g.[.-X-X-X-X<XcX2XcXcXNXLXLXLXLXLXLXLXJX2XMXy.^.0.s s A V k Z ",
"A M M h h j c D v x z L U U U P P Y Y Y Y C.Q w ] y.o.} ..} } } } @.^.'.`.`.].=XvXbXbXbXvXLXLXLXLXLXPXLXJX2XbX=XOX{.e w 6 V k A ",
"Z V B B c j n v x m m P U U U U Y Y Y g g g W e ] o.o.^.^.^.`.`.].].kXDXDXDXkXDXAXSXSXSXAXLXLXLXLXPXKXJXSX2XbX'.oX`.^ ~ q 6 F F ",
"-.Z =.S n n n z p L U U f U R R Y Y R W w W y e ) ..y.oX[.-XVXBXBXnXKXLXLXLXPXLXLXLXPXPXLXLXLXLXLXPXGXvXcXbXbX'.XX{.| | Q r r ' ",
"-.S &.S c v x x z L U U U U R R Y E E s ; w e e / } y.XX'.-XBXBXBXNXKXLXLXLXLXLXLXLXLXLXLXLXLXLXLXPXAXNXNXBXvX=XoXXXo.O.! w w Q ",
"-.S &.N z x L L m L L L L U U g g E K ~ ~ ~ ] / y.].`.XX'.[.-X-X=X=XkXlXlXlXlXZXGXGXGXGXGXGXGXGXGXGXkX[.=X=X[.^./.g.] ] ~ ~ ! ] ",
"-.S &.S z x L U L x m x p l s w w w w ..y.O.oXXXzXVXMX'.oX^.@.} e e - - ; ; - [ %Xc._._._._._.c._._.! - ; ; ; e ; e e e } y.y.y.",
"-.Z Z N z z L L T c n l F s Q ^ ^ ^ ^ | y.y.`.`.<XvX1X'.&X].+.X.t t W W W r , [ .X).(.#XT.T.T.T.T.T.@.^ ! t t r , r t w +.....o.",
"Z M M B z z L P L j 3 F s Q O...y.oXXX{.{.{.y...y.u.u.@X@Xh.w Q X.9.~ w W +   & t e u.5X,X,X,X,X,X,X5X5X<X|.k..   o r t W w e ..",
"Z M M h z x L U T V 8 q e ^ | } y.oXoXXXXXoX..} ..} u.+X+Xv.e t X.a.t ; e o   O ; - | 5XQ.W.Q.W.W.W.W.W.E.(.k.    . u ^ W w r X.",
"-.B 3 h x x P L T j 4 ' } y.`.`.^./ ] y.y.y.-X1X@Xz.#X:X:XR.; t X.6.lXIXIXhXtXiXIXIXkX@.@.$XR.:XQ.W.W.!.!.:X<Xu.j.l.+ o ; W r ..",
"-.N 3 j x p P L T l 4 ) y.y.oX=X^.e e } ..} 3XVX;Xc.$XQ.>X~.; t X.[ GXLXLXgXaXFXLXLXlX- e _.Y.:X>XQ.W.W.W.Q.,XT.&X.X.   ; Q r } ",
"-.B 7 h b x L P T l M ` y.U.oX=X`.w W ..O.X.4XNX$Xc.$XQ.Q.~.- y [ [ IXLXLXgXaXgXLXLXZX- t %X#X4X>X>XQ.Q.Q.Q.:XY.+Xx..   , ! W } ",
"Z M h C c p L P T = O , ~ ~ / / ( o o ! ! ^ 1XvX$Xc.$XQ.Q.E.i.h.).x.HXLXLXhXtX9X:.4.5.k.h.[ / (.$XR.:XQ.W.W.>XE.:X<Xu.j.: + o ! ",
"A 5 k k n z U U T O   % Q , r r >     e e e bXVX;Xc.$XQ.W.E._.@X_._.HXLXLXhXqX%.    > *X(.e e h.&XY.4X>XQ.W.W.Q.>X5X$X*X%     r ",
"A 5 h h n l T P T O   0 3.2.3.9X:.    ] t.t.].'._._.$XQ.W.E.+X(.-X$XHXLXPXUXiXuX%.#.4.kX*X( / r.f.u.$X:XE.W.W.W.Q.:Xu.f.q @ @ s ",
"V 7 7 M h j J U J O   %.0X0X0X0X$.$   |.*X*Xy e u.%X$XQ.W.E.+X(.mXvXKXLXPXLXLXFXqXqXiXJX2Xp.p.t e y i.(.$XQ.Q.Q.Q.4Xe y k V V F ",
"C M 7 7 V k D m K # + $.rX0XqXqX$.1 $ v.x.h.r - f.+X$XW.Q.E._.(.bXcXJXKXKXKXKXUX9XwXiXAX3Xp.p.[ ! ! h.n.$X>X:XE.E.6XW Q l h h C ",
"J l h M V 9 X   . b.*Xj.7.4.    #.qXeXX         5.&X$XQ.W.E.|.@XvXcXvXbXbXcXcXnXBXVXnXvX3Xp.r.).|. X/ - } #X].y y d { R L z p C ",
"D l j h k 6 X   . b.&Xj.7._     #.8X0XX         6.%X$XQ.Q.:X_.(.nXvXvXvXvXcXcXvXcXvXvXcXbXr.r.c.%X|./ ; ..*X).y w d E R L z x A ",
"m j j h 5 6 o o o }.*Xx.j.8.+ + #.8X8XX         6.%X$X,X,X:X+X@XnXvXmXmXBXnXvXcX3X3X3X3X1Xf.u.c.+X|./ - [ |.k.r s d E Y m v n A ",
"D c h 4     5.7.r.xXcXcXcXxX(.@Xb.              6.&X+X#XT.$XcXbXcX2XJXLXLXLXLXZXc.+X+X+X@XcXmXh.r.p.%   @ A k n c m R Y m n m A ",
"D c j 4   . 5.p.t.zXcXcXvX;X(.@Xj.              7.*X&X&X|.-XVXmXmXcXJXKXKXKXKXDXc._.(.(.#XmXSXx.p.l.%   @ k k J H H E <.n z n C ",
"D n n k   . b.n.z.xXcXcXvX1X#X+Xx._ 4.2 2 2 X   + > > > % i z.h.@X#XDXAXAXAXAXmXzXxXxXxX1Xh.x.i + # : 2 6 k 4 O O O = @ l n n D ",
"D c D l   . }.%X+XxXcXcXvX1X+X+Xc.p.a.A 9 k X             + r.t._.c.1XcX3X3X3X2X2X2X2XNXbXa.l.%     2 *.Z C 2           j L m m ",
"D c n j   . k.+X(.3XcXvXmXxX+X%X.X9.q.A M B X         $ $ 0 w.7.jX|.xXVXBXnXnXnXnXnXnXVXbX> q o     @ @ @ @ : l.g.g.g.g.6 = l D ",
"D z z n 5._ kX1X1XbXcX;X@X+Xu.f.6.u G A Z B A :.#   1 9X7X9X9Xw.q > r.z.z.z.z.z.z.z.i.z.i.                  : SXVXVXVXCX>   = J ",
"D v n H p.t.MXBXNXcXNX;X%X|.r.p.4.6 h Z =.=.,.1.*   #.yXrXeXeX8X$   i p.8.8.8.p.p.p.p.6.6.                  % SXcXcXcXNX>   * J ",
"n = = q x.v.-X;X;X3XBX)._ _ _ _ :.5 M Z =.=.5 9 0 %.8XpXpXtXrX8Xw.' l.k.k.k.k.7.i i e.w.3.    u [ _ i i %   % kX;X;XcXNX>   * J ",
"l     + *X&X_.(.(.bXCX`     6 4 7 9 V =.Z Z     $.0XtXdXdXaXrX9XUXoXoXoXoXoX-Xq.    #.qXqX    b.*X*Xz.d.u   & |.+X@XnXBX>   * J ",
"l + + > +X+X+X+X+X;XbX9.# # 2 2 6 5 V B N S 1 #.8XtXpXaXaXsX9Xw.jX=X=X=X=XoX=Xq.    %.tXtX#.$ b.@X%Xf.p.i   # .Xc._.xXbX>   * J ",
"J 7.7.l.+X+X+X+X+X+X#Xj.7.4.    O 5 V M h h 8XqXsXfXpXeXeXwXjXOXAXvXvXvXNX-XoXq.    2.fXaXqX3.jX+X%Xf.p.i   o 6.r.t._.#X&   * J ",
"J a.a.j.+X+X_.+X+X+X@Xf.p._     O A M 7 h 4 0XeXpXdXpXrXrXwX$X$XcXcXcXcXNX-X=Xq.    2.fXdXyX8XiX&X%Xf.p.i   + l.p.s.%X@X%   2 J ",
"J 8.5.6.|._.+X+X+X_.|.j.p._     O A h 2 2 2 0XeXpXdXpX0XrXwX}.}.MXzXzXzXMXOX}.4.    $.fXaXeX8XuXb.b.d.s.i o % 5.4.[ |.%X%   * J ",
"l . . + p.r._.+X%Xt.r.p.a._     O A h       qXeXpXdXpX0XeX7X  . [ r.r.r.r.&         2.fXaX0X8X1 . . l.*Xx.7.5..   & |.%X%   * J ",
"l     + a.p.|.|.|.f.6.7.l._     O 9 k       qX0XsXdXpXqX0X$.  . 7.a.a.a.l.%         2.fXaX0XqX#.    l.*Xx.p.5..   #  X@X&   * J ",
"D 6 5 2 o o + + & o o o o q K.N.B.V.V.D.N.N.1 $ 1 1 9 q.q.q.+.` o + + o o ' +. .] +.' 1 1 &.&.8 5 9 # + + o o     X % & 6 l l A ",
"D A V 5                   = L.G.F.Z.Z.L.L.L.X       & y.| o.o.X.          Q y.o.o.O.'     V V M B A O                   k D n A ",
"C B N M @ * 6 q F K K E { D.P.G.H.H.G.H F H u u ` 5. .} | | | X.u ' 4.5.4.X.| y.^./.g.5.5.= @ 6 c c 4 2 6 F F K G K F F l c h A ",
"M B *.*.h a R R M.F.F.P.I.I.J.J.J.J.J.X     X.y.`.-X`.} | } | | y.y.`.-X=X^.} ^.oXoX[.=XOX    6 v v n L I C.C.S.S.V.Y C.n h 7 *.",
"Z B *.&.j a R Y f Z.Z.H.I.P.I.I.I.I.I.X     ] } ^.oX).} } } | o.y.o.{.-X-X/.} ^.oXoXoXXX`.    6 D m z p f Y M.N.N.B.Y R l M 9 -.",
"A A =.N c p B.N.N.G.H.G.S.V.N.B.B.B.E G q q /.^.`.oX`.^.^.U.} X.u q _ 4.4.X.y.y.^.^.).oX{.5.4.: * = T M.M.N.N.M.C.R m D j k 9 *.",
"V V =.N x p K.F.G.P.I.V.I T p p j 4 = X.O.O.XXoXXXXXXXoXoX`.} 9.          ( y...} } g.oXXXOXkX:     { G.F.F.S.Y Y T a j j k 9 =.",
"A C =.S P f V.F.Z.G.G.B.T T n c l F G g.^.^.'.XX{.[.[.XXXX`.| q.X   X $ O r ] ] ..} g.`.`.[.OXu + # { F.N.N.B.P L J j k h V V =.",
"-.&.*.D Y Y V.Z.F.Y g P n z j 4 G 0.| bXBXBX=X'.XX{.{.[.oX].} 9..   2 A A O   : y...} } o. XoXy.O.O.{ Y P z c a j 3 V M Z =.S -.",
"-.;.Z D Y Y S.Z.F.Y Y L n n h 3 G  .} bXcXcX=X'.XX[.[.[.oX`.o.9.X   4 M M @   q g.O.o.} | XXoXg...O.{ Y P z n j h 7 M M N =.Z -.",
"-.&.Z D I f V.F.F.A.Y L l l F F ' /.U.bXcX2X=X=XoX[.'.`.`./.) ` O X 4 M M @   *  .] ] ..| `.`.y...O.) P m n C B B M M M N &.=.-.",
"-.N 7 M c p V.F.F.A.M.m 4 G 0.} ^.VXcX2X2XbXvXBX-X[.].} | !     6 7 V 7 9 @         : 0.o...} | | O.%   @ M B =.;.A 5 k N S ;.Z ",
"-.Z M k v p K.F.F.M.Y m 3 G O.} U.BXcXcXcXbXcXNX-X X).} O.)   X 5 3 M h V @         : O.o.o.| | o.O.%   @ B h Z *.Z j h N N S A ",
"-.A h C v p Y A.Y Y Y n 3 G 0.} U.BXcXvXvXbXcXvX-X X`.} o.) 2 9 7 h h h V @   : q. . .X.| | ..} ..O.%   0 ,.-.h 9 B >.>.=.Z S A ",
"-.Z 3 j x p R Y Y Y Y D 9 G X.} U.CXVXVXVXVXcXNX-X=X`.o.O.{ 7 V M h h h V @   > g.| | | | O.o.o.X.O.%   0 ,.>.h 4 j 1.,.=.N S *.",
",.=.3 h x z L P P R M.a @ q .X].k.` ` ` ` ` =X-X].^.X.< < q Z C h M M V A @   > 0.o.| o...~ ~ ~ ~ ) , - < 2 4 J m D Z N -.-.>.*.",
"1.;.3 k x z x x p R M.=   q kXoXb.          ].oXy.o.(     O =.Z M M V V A @   > 0...| ..X.w w r w w Q ! -   O <.T <.h 3 >.,.,.-.",
"1.=.3 M D v v v x R M.=   q kX-X}.          .X-X^.| ~     @ =.*.8 3 4 3 h X   > /.0.O.O...w w r r r r W <   O <.T J h 3 >.,.,.*.",
">.-.-.D C l n v x L P =   # _ ' ' u u u u i X.X.X.y.(     @ T T T T U U R H G G , , , ) ) [ [ [ [ [ ( W <   O <.T J h 3 ;.;.;.-.",
"=.-.1.>.5 h C v x z m =         o l.a.p.p.a.r - ] y.(     O C.Y D.V.N.N.V.D.K.K     X r w 6.p.p.r.p.( W <   O J T J j 3 N N S 1.",
"*.=.>.;.7 5 V c n n D @   o % % i j.f.f.f.u.( ! ] } Q     = C.M.B.B.B.C.C.C.B.G o + > ( ( p.p.f.f.f.[ ( , o * E I <.j h Z Z A >.",
"V N N N M 3 3 j h h h @   % l.a.j. X%X%X%X+Xd.9.( w <     = S.B.Y Y I I P I U K s u _ 9.d.p.p.).&X|.f.p.[ Q d E Y T j k M M 3 =.",
"*.=.-.-.Z Z A A Z A Z * X : l.p.f. X+X+X+X+Xj.d.` ' , X X * S.B.C.R <.1.<.<.<.K Q Q ` 7.a.d.r.).|.|.j.a.[ W d E M.<.C A Z A A >."
};
