/* XPM */
static char *rcp11801108152645951[] = {
/* columns rows colors chars-per-pixel */
"64 64 12 1 ",
"  c #2B2928",
". c #3E3B39",
"X c #6F2F27",
"o c #73716F",
"O c #A7473F",
"+ c #C88850",
"@ c #EEA160",
"# c #F7F757",
"$ c #DFC76F",
"% c #AEB6A1",
"& c #F8C090",
"* c #E5E9DE",
/* pixels */
"@@@@@@@@@@@@@@@@@@@@@@@@@@@@@@@@@@@@@@@@@@@@@@@@@@@@@@@@@@@@@@@@",
"@@@@@@@@@@@@@@@@@@@@@@@@@@@@@@@@@@@@@@@@@@@@@@@@@@@@@@@@@@@@@@@@",
"@@@@@@@@@%%%%%*********@@@@XXXXXXXXXXXXXXXXXXX@@@@@@@@@@@@@@@@@@",
"@@@@@@@@@%%%%%*********@@@@XXXXXXXXXXXXXXXXXXX@@@@@@@@@@@@@@@@@@",
"@@@@@@@@@%%%%%*********@@@@XXXXXXXXXXXXXXXXXXX@@@@@@@@@@@@@@@@@@",
"@@@@@@@@@%%%%%*********@@@@XXXXXXXXXXXXXXXXXXX@@@@@@@@@@@@@@@@@@",
"@@@@@%%%%%%%%%%%%%*********XXXXXXXXXXOOOOOOOOOOOOOOOOOO@@@@@@@@@",
"@@@@@%%%%%%%%%%%%%*********XXXXXXXXXXOOOOOOOOOOOOOOOOOO@@@@@@@@@",
"@@@@@%%%%%%%%%%%%%*********XXXXXXXXXXOOOOOOOOOOOOOOOOOO@@@@@@@@@",
"@@@@@%%%%%%%%%%%%%*********XXXXXXXXXXOOOOOOOOOOOOOOOOOO@@@@@@@@@",
"@@@@@%%%%%%%%%%%%%*********XXXXXXXXXXOOOOOOOOOOOOOOOOOO@@@@@@@@@",
"@@@@@%%%%%%%%%@@@@@@@@@XXXXOOOOOOOOOOOOOOOOOOOOOOOOOOOO@@@@@@@@@",
"@@@@@%%%%%%%%%@@@@@@@@@XXXXOOOOOOOOOOOOOOOOOOOOOOOOOOOO@@@@@@@@@",
"@@@@@%%%%%%%%%@@@@@@@@@XXXXOOOOOOOOOOOOOOOOOOOOOOOOOOOO@@@@@@@@@",
"@@@@@%%%%%%%%%@@@@@@@@@XXXXOOOOOOOOOOOOOOOOOOOOOOOOOOOO@@@@@@@@@",
"@@@@@@@@@@@@@@@@@@OOOOOOOOOOOOOOOOOOOOOOOOOOOO++++@@@@@@@@@@@@@@",
"@@@@@@@@@@@@@@@@@@OOOOOOOOOOOOOOOOOOOOOOOOOOOO++++@@@@@@@@@@@@@@",
"@@@@@@@@@@@@@@@@@@OOOOOOOOOOOOOOOOOOOOOOOOOOOO++++@@@@@@@@@@@@@@",
"@@@@@@@@@@@@@@@@@@OOOOOOOOOOOOOOOOOOOOOOOOOOOO++++@@@@@@@@@@@@@@",
"@@@@@@@@@@@@@@@@@@OOOOOOOOOOOOOOOOOOOOOOOOOOOO++++@@@@@@@@@@@@@@",
"@@@@@@@@@@@@@@@@@@OOOOOOOOOOOOOO     +++++++++    @@@@@@@@@@@@@@",
"@@@@@@@@@@@@@@@@@@OOOOOOOOOOOOOO     +++++++++    @@@@@@@@@@@@@@",
"@@@@@@@@@@@@@@@@@@OOOOOOOOOOOOOO     +++++++++    @@@@@@@@@@@@@@",
"@@@@@@@@@@@@@@@@@@OOOOOOOOOOOOOO     +++++++++    @@@@@@@@@@@@@@",
"@@@@@@@@@@@@@@@@@@OOOOOOOOOOOOOO     +++++++++    @@@@@@@@@@@@@@",
"@@@@@@@@@@@@@@@@@@@@@@@....+++++&&&&&.........&&&&@@@@@@@@@@@@@@",
"@@@@@@@@@@@@@@@@@@@@@@@....+++++&&&&&.........&&&&@@@@@@@@@@@@@@",
"@@@@@@@@@@@@@@@@@@@@@@@....+++++&&&&&.........&&&&@@@@@@@@@@@@@@",
"@@@@@@@@@@@@@@@@@@@@@@@....+++++&&&&&.........&&&&@@@@@@@@@@@@@@",
"@@@@@@@@@@@@@@@@@@@@@@@+++++++++..................@@@@@@@@@@@@@@",
"@@@@@@@@@@@@@@@@@@@@@@@+++++++++..................@@@@@@@@@@@@@@",
"@@@@@@@@@@@@@@@@@@@@@@@+++++++++..................@@@@@@@@@@@@@@",
"@@@@@@@@@@@@@@@@@@@@@@@+++++++++..................@@@@@@@@@@@@@@",
"@@@@@@@@@@@@@@@@@@@@@@@+++++++++..................@@@@@@@@@@@@@@",
"@@@@@@@@@@@@@@@@@@*****OOOOOOOOO#####++++#####OOOO*****@@@@@@@@@",
"@@@@@@@@@@@@@@@@@@*****OOOOOOOOO#####++++#####OOOO*****@@@@@@@@@",
"@@@@@@@@@@@@@@@@@@*****OOOOOOOOO#####++++#####OOOO*****@@@@@@@@@",
"@@@@@@@@@@@@@@@@@@*****OOOOOOOOO#####++++#####OOOO*****@@@@@@@@@",
"@@@@@@@@@@@@@@*********OOOOOOOOOOOOOO####OOOOOOOOO*********@@@@@",
"@@@@@@@@@@@@@@*********OOOOOOOOOOOOOO####OOOOOOOOO*********@@@@@",
"@@@@@@@@@@@@@@*********OOOOOOOOOOOOOO####OOOOOOOOO*********@@@@@",
"@@@@@@@@@@@@@@*********OOOOOOOOOOOOOO####OOOOOOOOO*********@@@@@",
"@@@@@@@@@@@@@@*********OOOOOOOOOOOOOO####OOOOOOOOO*********@@@@@",
"@@@@@@@@@@@@@@&&&&&&&&&XXXXOOOOOOOOOO$$$$OOOOOOOOO&&&&&&&&&@@@@@",
"@@@@@@@@@@@@@@&&&&&&&&&XXXXOOOOOOOOOO$$$$OOOOOOOOO&&&&&&&&&@@@@@",
"@@@@@@@@@@@@@@&&&&&&&&&XXXXOOOOOOOOOO$$$$OOOOOOOOO&&&&&&&&&@@@@@",
"@@@@@@@@@@@@@@&&&&&&&&&XXXXOOOOOOOOOO$$$$OOOOOOOOO&&&&&&&&&@@@@@",
"@@@@@@@@@@@@@@&&&&&&&&&XXXXOOOOOOOOOO$$$$OOOOOOOOO&&&&&&&&&@@@@@",
"@@@@@@@@@@@@@@&&&&+++++$$$$$$$$$##############$$$$+++++&&&&@@@@@",
"@@@@@@@@@@@@@@&&&&+++++$$$$$$$$$##############$$$$+++++&&&&@@@@@",
"@@@@@@@@@@@@@@&&&&+++++$$$$$$$$$##############$$$$+++++&&&&@@@@@",
"@@@@@@@@@@@@@@&&&&+++++$$$$$$$$$##############$$$$+++++&&&&@@@@@",
"@@@@@@@@@@@@@@@@@@@@@@@ooooooooo@@@@@@@@@ooooooooo@@@@@@@@@@@@@@",
"@@@@@@@@@@@@@@@@@@@@@@@ooooooooo@@@@@@@@@ooooooooo@@@@@@@@@@@@@@",
"@@@@@@@@@@@@@@@@@@@@@@@ooooooooo@@@@@@@@@ooooooooo@@@@@@@@@@@@@@",
"@@@@@@@@@@@@@@@@@@@@@@@ooooooooo@@@@@@@@@ooooooooo@@@@@@@@@@@@@@",
"@@@@@@@@@@@@@@@@@@@@@@@ooooooooo@@@@@@@@@ooooooooo@@@@@@@@@@@@@@",
"@@@@@@@@@@@@@@@@@@@@@@@.........@@@@@@@@@.........@@@@@@@@@@@@@@",
"@@@@@@@@@@@@@@@@@@@@@@@.........@@@@@@@@@.........@@@@@@@@@@@@@@",
"@@@@@@@@@@@@@@@@@@@@@@@.........@@@@@@@@@.........@@@@@@@@@@@@@@",
"@@@@@@@@@@@@@@@@@@@@@@@.........@@@@@@@@@.........@@@@@@@@@@@@@@",
"@@@@@@@@@@@@@@@@@@@@@@@@@@@@@@@@@@@@@@@@@@@@@@@@@@@@@@@@@@@@@@@@",
"@@@@@@@@@@@@@@@@@@@@@@@@@@@@@@@@@@@@@@@@@@@@@@@@@@@@@@@@@@@@@@@@",
"@@@@@@@@@@@@@@@@@@@@@@@@@@@@@@@@@@@@@@@@@@@@@@@@@@@@@@@@@@@@@@@@"
};
