/* XPM */
static char *rcp33682444152342076[] = {
/* columns rows colors chars-per-pixel */
"64 64 14 1 ",
"  c #1A022A",
". c #1C042A",
"X c #3E1D33",
"o c #441E36",
"O c #573241",
"+ c #5E3643",
"@ c #814A4C",
"# c #A15C53",
"$ c #A55E55",
"% c #A75F55",
"& c #E59B5E",
"* c #EEA160",
"= c #F5A662",
"- c #1991CE",
/* pixels */
"---------------------+++++++++++O@%#%o. X&=*********************",
"---------------------+++++++++++O@%#%o. X&=*********************",
"---------------------+++++++++++O@%#%o. X&=*********************",
"---------------------+++++++++++O@%#%o. X&=*********************",
"---------------------+++++++++++O@%#%o. X&=*********************",
"---------------------+++++++++++O@%#%o. X&=*********************",
"---------------------+++++++++++O@%#%o. X&=*********************",
"---------------------+++++++++++O@%#%o. X&=*********************",
"---------------------+++++++++++O@%#%o. X&=*********************",
"---------------------+++++++++++O@%#%o. X&=*********************",
"---------------------+++++++++++O@%#%o. X&=*********************",
"---------------------+++++++++++O@%#%o. X&=*********************",
"---------------------+++++++++++O@%#%o. X&=*********************",
"---------------------+++++++++++O@%#%o. X&=*********************",
"---------------------+++++++++++O@%#%o. X&=*********************",
"---------------------+++++++++++O@%#%o. X&=*********************",
"---------------------+++++++++++O@%#%o. X&=*********************",
"---------------------+++++++++++O@%#%o. X&=*********************",
"---------------------+++++++++++O@%#%o. X&=*********************",
"---------------------+++++++++++O@%#%o. X&=*********************",
"---------------------+++++++++++O@%#%o. X&=*********************",
"---------------------+++++++++++O@%#%o. X&=*********************",
"---------------------+++++++++++O@%#%o. X&=*********************",
"---------------------+++++++++++O@%#%o. X&=*********************",
"---------------------+++++++++++O@%#%o. X&=*********************",
"---------------------+++++++++++O@%#%o. X&=*********************",
"---------------------+++++++++++O@%#%o. X&=*********************",
"---------------------+++++++++++O@%#%o. X&=*********************",
"---------------------+++++++++++O@%#%o. X&=*********************",
"---------------------+++++++++++O@%#%o. X&=*********************",
"---------------------+++++++++++O@%#%o. X&=*********************",
"---------------------+++++++++++O@%#%o. X&=*********************",
"---------------------+++++++++++O@%#%o. X&=*********************",
"---------------------+++++++++++O@%#%o. X&=*********************",
"---------------------+++++++++++O@%#%o. X&=*********************",
"---------------------+++++++++++O@%#%o. X&=*********************",
"---------------------+++++++++++O@%#%o. X&=*********************",
"---------------------+++++++++++O@%#%o. X&=*********************",
"---------------------+++++++++++O@%#%o. X&=*********************",
"---------------------+++++++++++O@%#%o. X&=*********************",
"---------------------+++++++++++O@%#%o. X&=*********************",
"---------------------+++++++++++O@%#%o. X&=*********************",
"---------------------+++++++++++O@%#%o. X&=*********************",
"---------------------+++++++++++O@%#%o. X&=*********************",
"---------------------+++++++++++O@%#%o. X&=*********************",
"---------------------+++++++++++O@%#%o. X&=*********************",
"---------------------+++++++++++O@%#%o. X&=*********************",
"---------------------+++++++++++O@%#%o. X&=*********************",
"---------------------+++++++++++O@%#%o. X&=*********************",
"---------------------+++++++++++O@%#%o. X&=*********************",
"---------------------+++++++++++O@%#%o. X&=*********************",
"---------------------+++++++++++O@%#%o. X&=*********************",
"---------------------+++++++++++O@%#%o. X&=*********************",
"---------------------+++++++++++O@%#%o. X&=*********************",
"---------------------+++++++++++O@%#%o. X&=*********************",
"---------------------+++++++++++O@%#%o. X&=*********************",
"---------------------+++++++++++O@%#%o. X&=*********************",
"---------------------+++++++++++O@%#%o. X&=*********************",
"---------------------+++++++++++O@%#%o. X&=*********************",
"---------------------+++++++++++O@%#%o. X&=*********************",
"---------------------+++++++++++O@%#%o. X&=*********************",
"---------------------+++++++++++O@%#%o. X&=*********************",
"---------------------+++++++++++O@%#%o. X&=*********************",
"---------------------+++++++++++O@%#%o. X&=*********************"
};
