/* XPM */
static char *c53027061ed7465d960e3bd3903ac80aNTOASXl08lLliMbX[] = {
/* columns rows colors chars-per-pixel */
"64 64 213 2 ",
"   c #1A0600",
".  c #230C00",
"X  c #2D1A06",
"o  c #35210B",
"O  c #3A2814",
"+  c #48361A",
"@  c #5D4D1B",
"#  c #5F501F",
"$  c #5D4B24",
"%  c #624F26",
"&  c #65542C",
"*  c #68562B",
"=  c #6B592E",
"-  c #635126",
";  c #675434",
":  c #695634",
">  c #6D5B34",
",  c #695539",
"<  c #6D5A3A",
"1  c #725E35",
"2  c #725E3A",
"3  c #77672E",
"4  c #6F6030",
"5  c #726133",
"6  c #796736",
"7  c #7C6C34",
"8  c #75633B",
"9  c #79673A",
"0  c #7E6C3C",
"q  c #7F7035",
"w  c #7F703C",
"e  c #7E6D41",
"r  c #7A6546",
"t  c #7F7041",
"y  c #806E36",
"u  c #806E3C",
"i  c #847336",
"p  c #83723C",
"a  c #89793E",
"s  c #89783B",
"d  c #816E43",
"f  c #846E4A",
"g  c #847342",
"h  c #897643",
"j  c #8A7A44",
"k  c #857249",
"l  c #897649",
"z  c #8C7A4A",
"x  c #917D46",
"c  c #927E4B",
"v  c #8E7C51",
"b  c #907E56",
"n  c #90823E",
"m  c #8D8442",
"M  c #8E894C",
"N  c #948545",
"B  c #988647",
"V  c #968A45",
"C  c #998B46",
"Z  c #95854C",
"A  c #99864D",
"S  c #96894C",
"D  c #9A8A4D",
"F  c #9D924C",
"G  c #9B9648",
"H  c #958552",
"J  c #9A8653",
"K  c #968A52",
"L  c #9B8A53",
"P  c #978559",
"I  c #9B865B",
"U  c #9D8B5A",
"Y  c #9D9152",
"T  c #9C9951",
"R  c #9D905A",
"E  c #A1934D",
"W  c #A18E53",
"Q  c #A18D5C",
"!  c #A1875D",
"~  c #A29354",
"^  c #A59A55",
"/  c #AB9D55",
"(  c #A49359",
")  c #A8955C",
"_  c #A69A5A",
"`  c #AC9C5D",
"'  c #B09F5F",
"]  c #A18A4F",
"[  c #9EA24E",
"{  c #ADA453",
"}  c #ACAA54",
"|  c #AEA25D",
" . c #ADAB5A",
".. c #A5A253",
"X. c #B2A55E",
"o. c #B3AA5E",
"O. c #B9AC5C",
"+. c #B2A956",
"@. c #B4B25C",
"#. c #BBB25B",
"$. c #ABA94F",
"%. c #9E8C61",
"&. c #A28F63",
"*. c #AD9D63",
"=. c #AF9F68",
"-. c #A39161",
";. c #B19F63",
":. c #AEA363",
">. c #AEAC62",
",. c #B3A563",
"<. c #B9A665",
"1. c #B5AA63",
"2. c #B9AB66",
"3. c #B4A56A",
"4. c #B9A66B",
"5. c #B5A969",
"6. c #BAAB6B",
"7. c #B3B263",
"8. c #BCB264",
"9. c #B5B468",
"0. c #BCB36A",
"q. c #BCBA6A",
"w. c #BBAB72",
"e. c #B9A875",
"r. c #C4BC5E",
"t. c #C0AF6E",
"y. c #C5BB64",
"u. c #C0B46B",
"i. c #C4BB6E",
"p. c #C3B667",
"a. c #C0AE70",
"s. c #C4B672",
"d. c #C4BB73",
"f. c #C9BC75",
"g. c #CBBD7A",
"h. c #C7BB79",
"j. c #BFC46C",
"k. c #BFC171",
"l. c #BFCA71",
"z. c #CAC65C",
"x. c #C3C666",
"c. c #C4C56D",
"v. c #CAC56D",
"b. c #C3CA6D",
"n. c #CBCB6D",
"m. c #CCCA62",
"M. c #D3CB6B",
"N. c #C5C671",
"B. c #C5C373",
"V. c #CAC574",
"C. c #C4CB73",
"Z. c #CBCA74",
"A. c #C5C37A",
"S. c #CCC47A",
"D. c #C5C97A",
"F. c #CDCB7A",
"G. c #D1C476",
"H. c #D3CA75",
"J. c #D1C77B",
"K. c #D2CA7C",
"L. c #DACE7B",
"P. c #D9CE71",
"I. c #CAD076",
"U. c #D3D17E",
"Y. c #DDD57A",
"T. c #E5DE7C",
"R. c #E6DE77",
"E. c #E9E576",
"W. c #E6E17B",
"Q. c #EBE47B",
"!. c #E9E477",
"~. c #F1EB7A",
"^. c #C9B881",
"/. c #D1BE84",
"(. c #CBC480",
"). c #CEC981",
"_. c #D2C483",
"`. c #D2CC81",
"'. c #D9CC80",
"]. c #D5D382",
"[. c #E6DB88",
"{. c #E8DC97",
"}. c #E7E180",
"|. c #ECE383",
" X c #E7E788",
".X c #EDE48B",
"XX c #E9E988",
"oX c #F1E78C",
"OX c #F4EA8B",
"+X c #EBE595",
"@X c #EEEB9A",
"#X c #EBE596",
"$X c #F3EB94",
"%X c #F4EE9B",
"&X c #FBEF9D",
"*X c #FDF495",
"=X c #FDF29D",
"-X c #F7F39E",
";X c #F4EAA5",
":X c #FAEEA3",
">X c #F5E6AC",
",X c #F6E8AE",
"<X c #F8EAA8",
"1X c #FEF4A3",
"2X c #FFFAA6",
"3X c #FFF5AB",
"4X c #FFFCAB",
"5X c #F6F2A5",
"6X c #FBEBB4",
"7X c #FFF6B1",
"8X c #FFFABC",
"9X c #FFFBB3",
"0X c #ECECA7",
/* pixels */
"D D J U U H u 0 0 h J U U L D D D L A A A A A A J L Z p p y y p A U U H u 7 7 6 7 c J J D D D D D D D D D D D D D D K K L Z s 7 ",
"D S H J J H p p p j J U L L L L L L L L L L L K U W A p p p p a L ( Q U z j j h j J Q U Y Y Y Y Y Y Y Y Y Y U U U U L K L Z a p ",
"Z p p h h a K D V D C C V F ,.1.,.X.| ,.,.,.,.3.3.3.*.D N N N F s.S.i.S.+X#X+X#X#XV.d.B.q.q.k.B.j.N.N.c.c.c.V.B.B.q.T S D L J I ",
"Z 7 7 p p s D D D C C C N F 1.2.1.1.1.1.1.1.<.e.w.w.*.L D F D E g.J.N.U.2X4X4X4X4XU.Z.U.F.D.C.C.C.I.I.I.I.I.Z.Z.F.(.T S D D I I ",
"H u p p 7 s Z D D D V V N F 1.1.1.1.1.1.1.1.<.e.w.w.*.A D D V D f.F.N.U.1X4X2X4X4XU.B.Z.b.c.c.c.c.N.N.N.N.N.N.c.Z.A.G m N N U U ",
"v g p p 7 p U ~ D F F F F ^ 1.X.1.1.1.1.1.1.1.3.3.3.*.L D D C E f.F.N.K.@X%X%X%X@XU.B.c.z.m.M.n.n.F.F.F.`.).Z.b.Z.C.[ G F F K H ",
"g d 0 7 7 a 3.5.,.,.X.X.| | 1.| ,.1.1.1.1.1.| j h 7 j 3.,.,.,.,.1.1. .@.F.Z.V.V.V.V.V.v.m.Y.XX X X-X5X5X5X5XI.c.N.V.N.B.J.u.h 0 ",
"g d 0 w 7 j 3.6.<.<.2.2.1.1.1.X.1.1.1.,.1.1._ p w 7 a 4.6.6.<.1.X. .} +.c.c.B.V.V.V.V.v.m.R.|.|..X=X1X1X3X1X].c.c.c.N.Z.L.f.h 0 ",
"g 0 p p 7 j 3.6.<.<.1.2.1.1.1.1.1.<.1.1.1.1.^ p 0 7 j w.6.<.,.X.,.o. .@.N.V.Z.Z.Z.V.V.v.m.R.Q.|..X=X=X1X1X1X].N.c.c.b.V.H.i.j g ",
"g 0 p 0 7 a 3.6.<.<.1.2.1.1.1.1.1.<.1.1.X.1.^ p 7 7 N w.5.,.,.,.,.o. .7.V.Z.Z.Z.Z.V.V.v.M.R.|..XoX=X=X=X1X=XU.k.N.c.N.V.G.i.l f ",
"p h p 7 7 j *.3.<.<.1.1.1.,.1.1.1.1.| <.1.1.` p 7 7 N 3.,.6.2.1.,.o.} @.N.Z.V.V.V.Z.Z.v.M.[.|.|.|.*X*X*X*X*X`.A.D.V.V.V.G.s.k f ",
"j K Z Z N Z 3.5.<.<.1.1.1.1.1.1.1.1.1.d.g.S.6.p p p j ~ ~ ~ F E s.V.c.c.F.F.Z.V.B.q.@.+.#.v.P.M.P.|..X.X|.|.@X0X0X#Xq.o.p.X.2 < ",
"z U U U K Y 3.<.<.<.1.1.1.o.o.1.1.o.1.S.K.`.0.p p p j K D D N C f.J.Z.Z.Z.Z.Z.Z.v.@.} { o.B.V.c.v.T.|.W.W.W.1X9X9X1X8.{ O./ 2 ; ",
"l U J K K ~ 3.2.<.1.1.1.o.o.o.o.o.o.1.V.S.J.0.0 7 7 h J D N N E h.Z.v.v.c.c.v.Z.v.@.$.} 5.(.F.c.Z.}.|.Q.Q.Q.:X3X3X=Xp.{ O./ 8 , ",
"l U J K K ~ 3.2.<.1.1.1.o.o.o.o.1.o.8.V.S.J.0.0 7 7 j ( L D S ^ f.Z.c.c.v.v.Z.Z.v.@.} +.9.A.V.c.Z.T.}.W.W.W.:X3X3X&Xy.+.#.{ 2 ; ",
"j J K K D ~ 3.<.,.1.1.1.o.o.o.o.1.o.| 1.2.8.| p p y z 3.,.,.,.,.6.o.+.@.V.Z.Z.Z.Z.c.v.c.j.C.b.c.c.n.n.n.n.n.%X3X1X1XV.i.H.u.8 ; ",
"j K K K D ~ 3.<.,.1.1.1.1.o.1.o.o.1.o.1.o.1.| p p 7 z e.6.2.2.<.,. .} @.Z.Z.V.N.Z.Z.Z.Z.b.b.b.b.x.x.x.x.x.x.$X3X1X&XH.G.L.i.8 & ",
"a K K K D ~ 3.<.,.1.1.1.1.1.1.1.1.1.1.1.1.0.| p 0 7 N e.6.6.6.2.<.o. .7.Z.F.V.V.V.V.Z.Z.C.C.b.b.b.x.x.x.x.b.$X1X1X:X'.G.L.s.1 % ",
"s L K K K ~ 3.<.,.,.1.o.1.:.:.,.,.:.:.:.:.5._ g 7 7 N 3.3.5.6.,.<.1.1.9.B.S.S.B.B.B.A.N.b.Z.b.b.b.C.C.C.l.C.oX=X2X<Xg.s.S.6.5 * ",
"s D K K K ~ 3.<.,.,.1.o.<.:.Y D D D D F D Y S p 0 7 p U D D D ^ ,.1.1.o.1.1.1.1.1.1.1.o.@.j.b.b.C.C.C.C.C.C..X=X2X;X/ V D V g g ",
"h U J K D Y ,.,.,.,.o.o.6.:.S N A S S S S Y A p p 0 p Z S N N C ,.1.1.1.>.1.1.>.>.>.>. . .B.Z.N.N.C.C.C.C.C.$X=X1X<X^ n V N h h ",
"l I J K K ~ 3.,.,.,.o.o.6.*.S A L L L L L Y A w g p h J D D N V ,.1.>.1.>.1.1.1.1.1.1.>.1.S.F.Z.Z.C.C.C.b.b.$X*X=X;X^ N C S g g ",
"l U J K D Y ,.,.,.1.o.o.6.:.A A D L A S S L S h g p j U L D D F <.1.>.5.1.5.5.1.1.1.5.1.7.F.K.F.F.Z.Z.Z.C.C.%X2X2X;X~ N D S g g ",
"z J U U A C 1.1.o.1.1.1.6.,.C N V C C C C C V g 0 0 z U J H K ( e.e.3.3.3.4.4.4.4.4.4.5.6.h._._.S._._._.(._.,X8X8X6X) Z U Z h p ",
"H J K K S F s.S.V.i.1.X.2.6.| ` ` | | | | X._ g 0 0 h z j h p p N x x x x x x x x x x j s n V V N N N N N N D R ( L a p h p p p ",
"D K J H N ~ S.`.K.V.<.1.,.,.<.<.<.2.2.2.2.0.:.g 0 u 0 0 p p p 7 7 0 0 0 0 0 0 0 0 0 0 0 7 7 7 7 7 7 7 7 7 7 3 3 3 5 7 0 u u g g ",
"C S U K N T S.J.S.V.1.1.X.X.<.,.1.<.<.<.<.6.` g e u 0 0 p p p p 7 0 e 0 0 0 0 e e t t g f f e e e 7 9 7 7 9 0 9 9 9 u g k g h g ",
"D D U K S ^ S.S.V.i.| | 1.6.6.,.,.<.<.<.<.2.` g 0 u g g p p p p p p g g g g g h h g g g d g g g g p p p p p p h h g u g g g u 0 ",
"K K R U A C 1.0.2.1.1.1.1.2.2.,.,.,.,.,.<.2.` g e u g h p p 7 j w.s.q.q.q.0.0.q.q.} ..| ` ` ` _ ,.L.Y.L.L.L.[.{.#X{.p & < < < < ",
"K K U R K C :.1.o.X.1.1.,.,.<.6.<.,.<.,.,.2.` g d p 0 0 p p 7 p /.].Z.Z.Z.Z.Z.H.Z.@. .o.<.<.2.,.u.oXOXOXOXOX2X4X8X6X7 $ , , , , ",
"A A U R K C ,.o.o.o.1.1.,.,.2.6.6.6.2.<.,.2.` g e g 0 0 p p 7 j ^.`.N.V.V.V.F.F.V.7. .o.X.X.,.,.2.T.|.|.|.|.&X1X3X>X7 % < : , , ",
"V S U U S C <.2.1.1.1.<.6.6.,.| X.,.X.<.<.2.` g 0 g h j h p 0 z ^.).D.D.D.D.D.D.B.7.>. .o.o.,.,.8.!.~.Q.Q.Q.=X1X3X>Xy - > : > > ",
"C D L H N F h.S.S.i.<.1.2.,.~ V F F C ` 6.u.` h 0 0 z J J J H U ^.).D.k.9.>.>.7.7.>. .>.o.o.1.,.8.Q.~.~.Q.Q.=X1X4X,Xi % , 2 e g ",
"D D K K Z T A.).S.d.<.X.2.,.D N D N B ` <.6.*.h 0 0 h U U L D W g.F.V.d.1.:.>.>.1.o.o.1.<.<.1.X.8.W.|.Q.E.Q.=X1X3X,Xq # : 5 e h ",
"D S D ] D T A.).).h.<.X.<.;.D W D B D ,.3.4.;.g d u h U L D B ~ /.J.V.f.,.,.1.<.<.o.+.1.4.4.1.X.8.T.|.!.E.E.*X1X3X,Xq $ : 4 w g ",
"D S D W D T h.).`.S.<.<.6.` B ~ W B ~ 6.3.<.;.g d u h U W D N ~ /.`.J.f.<.,.1.1.1.o.o.1.5.5.1.X.8.}..XQ.E.Q.%X=X3X,Xq # * > t g ",
"S L U ! K G B.F.Z.V.4.4.6.` N D D D ] 4.6.4.) g d u h U L A B ~ h._.K.f.2.<.1.1.<.1.1.o.1.1.o.X.8..XoX.X.X.X%X1X4X>X3 @ - = t g ",
"N L U ! D G B.F.F.d.) ( W ~ ` ` ;.3.;.~ ~ ~ D g d u h U L D B D 6.0.8.8.<.<.<.<.<.1.o.o.1.1.o.o.o.y.y.y.r.r.+X1X3X>XD p v z 4 4 ",
"p U U I Z G B.F.K.s.L J Z W 4.6.6.6.4.] B D Z g d u h J L L D D 3.,.,.,.,.,.,.,.<.,.,.1.1.o.o.o.o.+.{ { { { {.3X3X;X` K -.H > * ",
"g J I I Z T A.F.`.d.J J A ~ 6.6.6.6.3.D B D B g u 7 h U D D D D ,.6.3.3.<.,.,.,.<.3.3.<.o.o.X.o.o.1.1.1.X.,.{.7X7X<X^ N U H < : ",
"h H I I H T h.F.F.s.L J A ~ 4.6.4.4.3.D B D B g u 7 h U A D D D ,.5.5.5.<.<.1.<.<.,.5.,.| o.o.o.o.o.o.o.X.o.{.3X3X<X/ N U H > ; ",
"Z L J I K K Y T T _ ;.3.3.` D D W W ~ ,.3.<.) d 0 u h U L D D D ~ ~ L T <.<.,.<.,.~ L Y ^ 1.,.X.,.,.,.,.o.o.0.s.s.0.F S U Z < ; ",
"D D J J J K M M m Y 4.6.6.' B N B B D ,.6.t.;.d 0 0 h U L D D D D D Z L <.<.,.<.1.L Z S C 1.<.,.,.,.1.o.o.o.,.,.,.{ G C U Z < ; ",
"L D J J K K K A S Y 4.4.4.` D D D D W 3.4.6.` p 0 7 h U D D D D D D A Y <.1.<.<.<.L Z A D ,.5.,.<.1.1.1.1.1.<.5.5.,.F D U Z < , ",
"U K B D D A A B A W ,.6.6.*.A L W L W 4.4.4.) i 7 7 a L D K L L D D D ~ 1.2.2.<.1.L Z D ~ 3.6.6.5.<.<.<.<.<.<.<.,.3.L D U Z > , ",
"U W D D D A L D A W 4.6.4.*.D L L L ~ 4.4.w.*.p 7 7 a L L U L D K K K ~ ,.2.2.<.X.~ Z Z K 3.w.6.5.<.<.<.,.,.,.,.5.3.L D K N > ; ",
"z K D L D D ) ` ;.` ) ( ) ( A W U L U ) ( ) W p 7 7 j L L L K K *.*.` _ ( ( ~ ~ ( _ ` ` *.( ( ~ _ ,.<.<.<.<.<.<.5.3.N p j h 9 8 ",
"s A L U D D ,.6.a.3.D A L L L W W L L U J K A p 7 7 j L L U K K 3.6.2.,.K H Z Z K | 2.6.4.L Z Z L ,.<.<.<.<.2.1.6.3.a 7 q p d f ",
"p U L U D D ,.6.6.;.W D L L L W L J L L L U J p 7 7 j K L U K K 3.6.2.,.K K K Z K ,.2.6.,.Y D D ~ ,.<.,.,.,.2.2.6.e.j p p p d e ",
"j K L Z Z ) 4.6.4.*.Q L L L L L L L L L L U A p p p j L K Z Z ( e.6.1.,.L K U U U ,.2.<.,.V V D F 3.6.5.4.5.w.6.e.e.z f k k g p ",
"K U U J A W ( ~ ~ W U L U U U U L L L L L L A p p p j K K Z Z K ) ~ E ~ *.=.3.3.=.~ E E F ` | | ` ~ ~ ~ ( ( N m N z + O O + 0 p ",
"U L L L L D A A D K L L L U U U L L L L L L A p p p j K K K K U Z A N D 6.6.3.6.w.L Z S V <.2.2.,.D S D D D p 7 p 8 X     X 6 h ",
"K A Z A L U J U Q W L D K J J J J K L U L U J p p 0 j J J J J U H J H K 2.,.X.<.6.U J L D ,.<.<.,.L D D K K j u g r o   . o 9 h ",
"K U L D L U W U U U L D J J J K K K K K K U Z p p 0 h J J K J J J U J U ,.,.,.,.,.( U D V ,.2.6.,.D S D D D h 0 g r o . . o 9 j ",
"Z 3.X.X.,.` a p h j D L L L L L L L A h p j p 2 > > 8 k h h h h h h h j U U U U U J J K D L ~ ~ U K D D D D Z N H b : $ $ - 0 p ",
"N 6.O.O.2.,.i 7 y a D L L L L L L U A p y p y > , ; > e 0 0 0 0 0 p p h H H H H H J J K K Z Z Z Z K D D D D K K U I 0 5 1 5 p p ",
"N 4.,.X.2.;.i y y h D L L U U U U U A p y p u > , : 1 f g p p p p p p h H J H J J J J J K K K K K K K K K K K K J P 8 = = > y p ",
"H e.,.,.6.;.s y y h K U U U U U U U J p y p u > , : 1 f g p p p p p p h H J J J J J J J K K K K K K K K K K K K J P 8 = = > y p ",
"H w.6.2.t.3.i 7 y h U U Q U Q Q Q Q J p y p u > , : 1 f g p p p p p p j J J J J U U U J K K K K K L K L K K J J U P 5 * * = y p ",
"h H J A J J N c Z c z z z l l l l j h u u p 0 < , : 8 k d 0 0 0 0 u u p h h h j j j j j z J U U J j h j j j j j z l 0 9 9 9 u p ",
"0 6 0 0 9 g ! Q Q J d 0 0 0 0 u u u u d d d 0 < , > 8 l d 0 0 0 0 0 0 0 7 7 0 0 0 0 0 0 0 P U U P d 0 0 0 0 0 0 0 0 g g g g g g ",
"g u d e 0 g ! Q U J d d d g g g g g g g g h d , < > 8 k g g g g g g g g g g g h h h h g g P U U J g g g g g g g g g g g g g g g ",
"k f f f f l I &.-.I k f f k k k k k k k k l f , < < 2 e f g g g g g g g g g g h h h h g k P %.&.I k g k k k g g g g g g g g g g ",
"2 1 2 r 2 1 9 9 u 0 1 1 1 1 1 1 1 1 1 1 1 5 1 , < : : 2 1 1 1 5 5 5 5 5 5 5 5 5 5 5 5 5 8 0 0 0 9 5 5 5 1 5 0 g g p p p p p g g "
};
